<svg width="97" height="24" viewBox="0 0 97 24" fill="none" xmlns="http://www.w3.org/2000/svg">
<path d="M25.015 12C25.2093 13.162 25.3299 14.3385 25.3545 15.5168C25.3697 16.241 25.3495 16.9682 25.2638 17.688C25.2106 18.134 25.1329 18.5797 25.0035 19.0104C24.9226 19.2795 24.8212 19.5451 24.68 19.7887C24.5942 19.9366 24.4927 20.0769 24.3692 20.1957C23.4639 21.0656 22.2146 19.9315 21.572 19.2854C21.4185 19.131 21.2698 18.9719 21.1245 18.8098C20.9417 18.6058 20.7643 18.3969 20.5907 18.185C20.366 17.9106 20.1477 17.6311 19.9334 17.3486C17.6415 14.3259 15.7196 11.0389 13.357 8.06703C12.0954 6.48006 10.636 4.73828 8.75083 3.87579C8.38009 3.70617 7.98806 3.57788 7.58346 3.52139C5.56279 3.23925 4.16865 4.96966 3.35272 6.5882C1.95368 9.36346 1.38645 12.6822 1.36074 15.7691C1.35007 17.05 1.37497 18.5547 1.99748 19.7143C2.08271 19.873 2.18404 20.0248 2.30919 20.1551C3.29104 21.1767 4.70704 19.7598 5.37185 19.0525C5.54156 18.872 5.70603 18.6865 5.8668 18.498C6.07046 18.2592 6.26819 18.0153 6.46193 17.7684C6.71257 17.449 6.95655 17.1243 7.19644 16.7967C7.49701 16.3863 7.79116 15.9711 8.082 15.5537C8.75524 14.5876 9.41137 13.6096 10.0735 12.6358C10.5909 11.8748 11.1115 11.1159 11.6448 10.3658C12.0727 9.76403 12.5086 9.16784 12.9589 8.58257C13.3049 8.1328 13.6594 7.68941 14.0264 7.25654C14.3163 6.91465 14.614 6.57927 14.9223 6.2539C16.3572 4.73967 18.6393 2.71811 20.8823 3.78545C21.1954 3.93442 21.4831 4.133 21.7438 4.36083C22.1582 4.723 22.5065 5.15665 22.8081 5.6155C23.2907 6.34989 23.6613 7.15538 23.9684 7.97702C24.4538 9.27548 24.7849 10.6311 25.0144 11.9969" stroke="url(#paint0_linear_170_119)" stroke-width="2.71741" stroke-linecap="square" stroke-linejoin="round"/>
<mask id="path-2-outside-1_170_119" maskUnits="userSpaceOnUse" x="33.3591" y="5" width="63" height="18" fill="black">
<rect fill="white" x="33.3591" y="5" width="63" height="18"/>
<path d="M38.4907 19.1086C37.4381 19.1086 36.6683 18.8882 36.1815 18.4474C35.7012 18.0066 35.4611 17.2829 35.4611 16.2763V9.88158H33.8328V8.46053H35.4611V5.70724H37.2374V8.46053H39.4677V9.88158H37.2374V15.9507C37.2374 16.5559 37.3558 16.9868 37.5927 17.2434C37.8295 17.4934 38.2111 17.6184 38.7374 17.6184C38.8756 17.6184 38.9973 17.6151 39.1026 17.6086C39.2078 17.602 39.3295 17.5921 39.4677 17.5789V19.0197C39.3164 19.0395 39.1585 19.0592 38.994 19.0789C38.8295 19.0987 38.6618 19.1086 38.4907 19.1086ZM45.3745 19.1875C44.3811 19.1875 43.5193 18.9671 42.789 18.5263C42.0653 18.0855 41.5028 17.4572 41.1015 16.6414C40.7068 15.8257 40.5094 14.8586 40.5094 13.7401V13.7204C40.5094 12.5954 40.7068 11.625 41.1015 10.8092C41.5028 9.99342 42.0653 9.36842 42.789 8.93421C43.5193 8.49342 44.3778 8.27303 45.3647 8.27303C46.3647 8.27303 47.2265 8.49342 47.9502 8.93421C48.6739 9.36842 49.2331 9.99342 49.6278 10.8092C50.0291 11.625 50.2298 12.5954 50.2298 13.7204V13.7401C50.2298 14.8586 50.0291 15.8257 49.6278 16.6414C49.2331 17.4572 48.6739 18.0855 47.9502 18.5263C47.2265 18.9671 46.3679 19.1875 45.3745 19.1875ZM45.3745 17.6678C46.0258 17.6678 46.5818 17.5132 47.0423 17.2039C47.5028 16.8947 47.8548 16.4474 48.0982 15.8618C48.3482 15.2697 48.4732 14.5625 48.4732 13.7401V13.7204C48.4732 12.8849 48.3482 12.1776 48.0982 11.5987C47.8548 11.0132 47.5028 10.5658 47.0423 10.2566C46.5818 9.94737 46.0226 9.79276 45.3647 9.79276C44.7199 9.79276 44.164 9.94737 43.6969 10.2566C43.2364 10.5658 42.8811 11.0132 42.6311 11.5987C42.3877 12.1776 42.266 12.8849 42.266 13.7204V13.7401C42.266 14.5625 42.3877 15.2697 42.6311 15.8618C42.8811 16.4474 43.2364 16.8947 43.6969 17.2039C44.164 17.5132 44.7232 17.6678 45.3745 17.6678ZM52.0511 22.523V8.46053H53.7682V10.1678H53.8965C54.1136 9.77303 54.3833 9.43421 54.7057 9.15132C55.0347 8.86842 55.4064 8.65132 55.8208 8.5C56.2419 8.34868 56.6991 8.27303 57.1926 8.27303C58.0873 8.27303 58.8669 8.5 59.5314 8.95395C60.1958 9.40132 60.709 10.0329 61.0708 10.8487C61.4393 11.6645 61.6235 12.6217 61.6235 13.7204V13.7401C61.6235 14.8454 61.4393 15.8059 61.0708 16.6217C60.709 17.4375 60.1958 18.0691 59.5314 18.5164C58.8669 18.9638 58.0906 19.1875 57.2024 19.1875C56.7156 19.1875 56.2583 19.1118 55.8307 18.9605C55.4031 18.8026 55.0248 18.5855 54.6958 18.3092C54.3669 18.0263 54.1004 17.6941 53.8965 17.3125H53.7682V22.523H52.0511ZM56.8176 17.6678C57.4557 17.6678 58.0018 17.5099 58.4557 17.1941C58.9097 16.8783 59.2583 16.4276 59.5018 15.8421C59.7452 15.25 59.8669 14.5493 59.8669 13.7401V13.7204C59.8669 12.9046 59.7452 12.2039 59.5018 11.6184C59.2583 11.0329 58.9097 10.5822 58.4557 10.2664C58.0018 9.95066 57.4557 9.79276 56.8176 9.79276C56.186 9.79276 55.6399 9.95395 55.1794 10.2763C54.7189 10.5921 54.3636 11.0428 54.1136 11.6283C53.8636 12.2138 53.7386 12.9112 53.7386 13.7204V13.7401C53.7386 14.5428 53.8636 15.2401 54.1136 15.8322C54.3636 16.4178 54.7189 16.8717 55.1794 17.1941C55.6399 17.5099 56.186 17.6678 56.8176 17.6678ZM63.4645 19V8.46053H65.1816V10.0493H65.3099C65.5402 9.49671 65.902 9.0625 66.3954 8.74671C66.8889 8.43092 67.4777 8.27303 68.1619 8.27303C68.6422 8.27303 69.0698 8.35197 69.4448 8.50987C69.8264 8.66776 70.1553 8.88816 70.4316 9.17105C70.7079 9.45395 70.9283 9.78618 71.0928 10.1678H71.2112C71.402 9.77961 71.6586 9.44408 71.981 9.16118C72.3033 8.87829 72.675 8.66118 73.0961 8.50987C73.5237 8.35197 73.9777 8.27303 74.4579 8.27303C75.1685 8.27303 75.7737 8.41118 76.2737 8.6875C76.7803 8.95724 77.1652 9.34868 77.4283 9.86184C77.6981 10.375 77.8329 10.9934 77.8329 11.7171V19H76.1158V12.1118C76.1158 11.5987 76.0336 11.1711 75.8691 10.8289C75.7112 10.4868 75.4678 10.2303 75.1389 10.0592C74.8165 9.88158 74.4119 9.79276 73.925 9.79276C73.4382 9.79276 73.0139 9.90461 72.652 10.1283C72.2902 10.3454 72.0073 10.6382 71.8033 11.0066C71.5994 11.375 71.4974 11.7895 71.4974 12.25V19H69.7803V11.8651C69.7803 11.4507 69.6915 11.0888 69.5139 10.7796C69.3362 10.4638 69.0829 10.2204 68.754 10.0493C68.425 9.87829 68.0402 9.79276 67.5994 9.79276C67.1454 9.79276 66.7343 9.91118 66.3658 10.148C65.9974 10.3849 65.7079 10.7039 65.4974 11.1053C65.2869 11.5066 65.1816 11.9539 65.1816 12.4474V19H63.4645ZM83.0293 19.1875C82.3582 19.1875 81.7562 19.0592 81.2233 18.8026C80.697 18.5461 80.2793 18.1842 79.97 17.7171C79.6674 17.2434 79.5161 16.6875 79.5161 16.0493V16.0296C79.5161 15.4112 79.6641 14.8816 79.9602 14.4408C80.2628 13.9934 80.7003 13.6414 81.2727 13.3849C81.845 13.1283 82.5391 12.977 83.3549 12.9309L87.2332 12.7039V14.0658L83.5523 14.2928C82.776 14.3388 82.2003 14.5066 81.8253 14.7961C81.4569 15.0855 81.2727 15.4868 81.2727 16V16.0197C81.2727 16.5461 81.47 16.9572 81.8648 17.2533C82.2661 17.5493 82.776 17.6974 83.3944 17.6974C83.9668 17.6974 84.4766 17.5822 84.924 17.352C85.3714 17.1217 85.7233 16.8059 85.9799 16.4046C86.2431 16.0033 86.3747 15.5526 86.3747 15.0526V11.8158C86.3747 11.1645 86.174 10.6645 85.7727 10.3158C85.3779 9.96711 84.7924 9.79276 84.0161 9.79276C83.3779 9.79276 82.8549 9.91447 82.447 10.1579C82.0391 10.4013 81.7694 10.7368 81.6378 11.1645L81.6279 11.2039H79.9306L79.9404 11.1349C80.0194 10.5757 80.2398 10.0822 80.6016 9.65461C80.9635 9.2204 81.4372 8.88158 82.0227 8.63816C82.6148 8.39474 83.2957 8.27303 84.0654 8.27303C84.9207 8.27303 85.6477 8.41447 86.2464 8.69737C86.845 8.97368 87.3023 9.375 87.6181 9.90132C87.9339 10.4211 88.0918 11.0428 88.0918 11.7664V19H86.3747V17.4013H86.2464C86.0293 17.7763 85.7595 18.0987 85.4372 18.3684C85.1148 18.6382 84.7497 18.8421 84.3418 18.9803C83.9404 19.1184 83.5029 19.1875 83.0293 19.1875ZM90.3769 19V8.46053H92.094V10.0789H92.2223C92.4131 9.51316 92.742 9.07237 93.2091 8.75658C93.6828 8.43421 94.2585 8.27303 94.9361 8.27303C95.1006 8.27303 95.2585 8.2829 95.4098 8.30263C95.5611 8.31579 95.6762 8.32895 95.7552 8.34211V10.0099C95.6039 9.97697 95.4427 9.95395 95.2716 9.94079C95.1072 9.92105 94.9295 9.91118 94.7387 9.91118C94.219 9.91118 93.7585 10.0164 93.3572 10.227C92.9624 10.4375 92.6532 10.7368 92.4295 11.125C92.2058 11.5066 92.094 11.9572 92.094 12.477V19H90.3769Z"/>
</mask>
<path d="M38.4907 19.1086C37.4381 19.1086 36.6683 18.8882 36.1815 18.4474C35.7012 18.0066 35.4611 17.2829 35.4611 16.2763V9.88158H33.8328V8.46053H35.4611V5.70724H37.2374V8.46053H39.4677V9.88158H37.2374V15.9507C37.2374 16.5559 37.3558 16.9868 37.5927 17.2434C37.8295 17.4934 38.2111 17.6184 38.7374 17.6184C38.8756 17.6184 38.9973 17.6151 39.1026 17.6086C39.2078 17.602 39.3295 17.5921 39.4677 17.5789V19.0197C39.3164 19.0395 39.1585 19.0592 38.994 19.0789C38.8295 19.0987 38.6618 19.1086 38.4907 19.1086ZM45.3745 19.1875C44.3811 19.1875 43.5193 18.9671 42.789 18.5263C42.0653 18.0855 41.5028 17.4572 41.1015 16.6414C40.7068 15.8257 40.5094 14.8586 40.5094 13.7401V13.7204C40.5094 12.5954 40.7068 11.625 41.1015 10.8092C41.5028 9.99342 42.0653 9.36842 42.789 8.93421C43.5193 8.49342 44.3778 8.27303 45.3647 8.27303C46.3647 8.27303 47.2265 8.49342 47.9502 8.93421C48.6739 9.36842 49.2331 9.99342 49.6278 10.8092C50.0291 11.625 50.2298 12.5954 50.2298 13.7204V13.7401C50.2298 14.8586 50.0291 15.8257 49.6278 16.6414C49.2331 17.4572 48.6739 18.0855 47.9502 18.5263C47.2265 18.9671 46.3679 19.1875 45.3745 19.1875ZM45.3745 17.6678C46.0258 17.6678 46.5818 17.5132 47.0423 17.2039C47.5028 16.8947 47.8548 16.4474 48.0982 15.8618C48.3482 15.2697 48.4732 14.5625 48.4732 13.7401V13.7204C48.4732 12.8849 48.3482 12.1776 48.0982 11.5987C47.8548 11.0132 47.5028 10.5658 47.0423 10.2566C46.5818 9.94737 46.0226 9.79276 45.3647 9.79276C44.7199 9.79276 44.164 9.94737 43.6969 10.2566C43.2364 10.5658 42.8811 11.0132 42.6311 11.5987C42.3877 12.1776 42.266 12.8849 42.266 13.7204V13.7401C42.266 14.5625 42.3877 15.2697 42.6311 15.8618C42.8811 16.4474 43.2364 16.8947 43.6969 17.2039C44.164 17.5132 44.7232 17.6678 45.3745 17.6678ZM52.0511 22.523V8.46053H53.7682V10.1678H53.8965C54.1136 9.77303 54.3833 9.43421 54.7057 9.15132C55.0347 8.86842 55.4064 8.65132 55.8208 8.5C56.2419 8.34868 56.6991 8.27303 57.1926 8.27303C58.0873 8.27303 58.8669 8.5 59.5314 8.95395C60.1958 9.40132 60.709 10.0329 61.0708 10.8487C61.4393 11.6645 61.6235 12.6217 61.6235 13.7204V13.7401C61.6235 14.8454 61.4393 15.8059 61.0708 16.6217C60.709 17.4375 60.1958 18.0691 59.5314 18.5164C58.8669 18.9638 58.0906 19.1875 57.2024 19.1875C56.7156 19.1875 56.2583 19.1118 55.8307 18.9605C55.4031 18.8026 55.0248 18.5855 54.6958 18.3092C54.3669 18.0263 54.1004 17.6941 53.8965 17.3125H53.7682V22.523H52.0511ZM56.8176 17.6678C57.4557 17.6678 58.0018 17.5099 58.4557 17.1941C58.9097 16.8783 59.2583 16.4276 59.5018 15.8421C59.7452 15.25 59.8669 14.5493 59.8669 13.7401V13.7204C59.8669 12.9046 59.7452 12.2039 59.5018 11.6184C59.2583 11.0329 58.9097 10.5822 58.4557 10.2664C58.0018 9.95066 57.4557 9.79276 56.8176 9.79276C56.186 9.79276 55.6399 9.95395 55.1794 10.2763C54.7189 10.5921 54.3636 11.0428 54.1136 11.6283C53.8636 12.2138 53.7386 12.9112 53.7386 13.7204V13.7401C53.7386 14.5428 53.8636 15.2401 54.1136 15.8322C54.3636 16.4178 54.7189 16.8717 55.1794 17.1941C55.6399 17.5099 56.186 17.6678 56.8176 17.6678ZM63.4645 19V8.46053H65.1816V10.0493H65.3099C65.5402 9.49671 65.902 9.0625 66.3954 8.74671C66.8889 8.43092 67.4777 8.27303 68.1619 8.27303C68.6422 8.27303 69.0698 8.35197 69.4448 8.50987C69.8264 8.66776 70.1553 8.88816 70.4316 9.17105C70.7079 9.45395 70.9283 9.78618 71.0928 10.1678H71.2112C71.402 9.77961 71.6586 9.44408 71.981 9.16118C72.3033 8.87829 72.675 8.66118 73.0961 8.50987C73.5237 8.35197 73.9777 8.27303 74.4579 8.27303C75.1685 8.27303 75.7737 8.41118 76.2737 8.6875C76.7803 8.95724 77.1652 9.34868 77.4283 9.86184C77.6981 10.375 77.8329 10.9934 77.8329 11.7171V19H76.1158V12.1118C76.1158 11.5987 76.0336 11.1711 75.8691 10.8289C75.7112 10.4868 75.4678 10.2303 75.1389 10.0592C74.8165 9.88158 74.4119 9.79276 73.925 9.79276C73.4382 9.79276 73.0139 9.90461 72.652 10.1283C72.2902 10.3454 72.0073 10.6382 71.8033 11.0066C71.5994 11.375 71.4974 11.7895 71.4974 12.25V19H69.7803V11.8651C69.7803 11.4507 69.6915 11.0888 69.5139 10.7796C69.3362 10.4638 69.0829 10.2204 68.754 10.0493C68.425 9.87829 68.0402 9.79276 67.5994 9.79276C67.1454 9.79276 66.7343 9.91118 66.3658 10.148C65.9974 10.3849 65.7079 10.7039 65.4974 11.1053C65.2869 11.5066 65.1816 11.9539 65.1816 12.4474V19H63.4645ZM83.0293 19.1875C82.3582 19.1875 81.7562 19.0592 81.2233 18.8026C80.697 18.5461 80.2793 18.1842 79.97 17.7171C79.6674 17.2434 79.5161 16.6875 79.5161 16.0493V16.0296C79.5161 15.4112 79.6641 14.8816 79.9602 14.4408C80.2628 13.9934 80.7003 13.6414 81.2727 13.3849C81.845 13.1283 82.5391 12.977 83.3549 12.9309L87.2332 12.7039V14.0658L83.5523 14.2928C82.776 14.3388 82.2003 14.5066 81.8253 14.7961C81.4569 15.0855 81.2727 15.4868 81.2727 16V16.0197C81.2727 16.5461 81.47 16.9572 81.8648 17.2533C82.2661 17.5493 82.776 17.6974 83.3944 17.6974C83.9668 17.6974 84.4766 17.5822 84.924 17.352C85.3714 17.1217 85.7233 16.8059 85.9799 16.4046C86.2431 16.0033 86.3747 15.5526 86.3747 15.0526V11.8158C86.3747 11.1645 86.174 10.6645 85.7727 10.3158C85.3779 9.96711 84.7924 9.79276 84.0161 9.79276C83.3779 9.79276 82.8549 9.91447 82.447 10.1579C82.0391 10.4013 81.7694 10.7368 81.6378 11.1645L81.6279 11.2039H79.9306L79.9404 11.1349C80.0194 10.5757 80.2398 10.0822 80.6016 9.65461C80.9635 9.2204 81.4372 8.88158 82.0227 8.63816C82.6148 8.39474 83.2957 8.27303 84.0654 8.27303C84.9207 8.27303 85.6477 8.41447 86.2464 8.69737C86.845 8.97368 87.3023 9.375 87.6181 9.90132C87.9339 10.4211 88.0918 11.0428 88.0918 11.7664V19H86.3747V17.4013H86.2464C86.0293 17.7763 85.7595 18.0987 85.4372 18.3684C85.1148 18.6382 84.7497 18.8421 84.3418 18.9803C83.9404 19.1184 83.5029 19.1875 83.0293 19.1875ZM90.3769 19V8.46053H92.094V10.0789H92.2223C92.4131 9.51316 92.742 9.07237 93.2091 8.75658C93.6828 8.43421 94.2585 8.27303 94.9361 8.27303C95.1006 8.27303 95.2585 8.2829 95.4098 8.30263C95.5611 8.31579 95.6762 8.32895 95.7552 8.34211V10.0099C95.6039 9.97697 95.4427 9.95395 95.2716 9.94079C95.1072 9.92105 94.9295 9.91118 94.7387 9.91118C94.219 9.91118 93.7585 10.0164 93.3572 10.227C92.9624 10.4375 92.6532 10.7368 92.4295 11.125C92.2058 11.5066 92.094 11.9572 92.094 12.477V19H90.3769Z" fill="#242226"/>
<path d="M36.1815 18.4474L36.079 18.559L36.0798 18.5597L36.1815 18.4474ZM35.4611 9.88158H35.6127V9.73H35.4611V9.88158ZM33.8328 9.88158H33.6812V10.0332H33.8328V9.88158ZM33.8328 8.46053V8.30895H33.6812V8.46053H33.8328ZM35.4611 8.46053V8.61211H35.6127V8.46053H35.4611ZM35.4611 5.70724V5.55566H35.3095V5.70724H35.4611ZM37.2374 5.70724H37.389V5.55566H37.2374V5.70724ZM37.2374 8.46053H37.0858V8.61211H37.2374V8.46053ZM39.4677 8.46053H39.6193V8.30895H39.4677V8.46053ZM39.4677 9.88158V10.0332H39.6193V9.88158H39.4677ZM37.2374 9.88158V9.73H37.0858V9.88158H37.2374ZM37.5927 17.2434L37.4813 17.3462L37.4826 17.3477L37.5927 17.2434ZM39.4677 17.5789H39.6193V17.4122L39.4533 17.4281L39.4677 17.5789ZM39.4677 19.0197L39.4873 19.17L39.6193 19.1528V19.0197H39.4677ZM38.4907 19.1086V18.957C37.4542 18.957 36.7296 18.7391 36.2832 18.335L36.1815 18.4474L36.0798 18.5597C36.6071 19.0372 37.422 19.2601 38.4907 19.2601V19.1086ZM36.1815 18.4474L36.284 18.3357C35.8486 17.9361 35.6127 17.2633 35.6127 16.2763H35.4611H35.3095C35.3095 17.3025 35.5539 18.0771 36.079 18.559L36.1815 18.4474ZM35.4611 16.2763H35.6127V9.88158H35.4611H35.3095V16.2763H35.4611ZM35.4611 9.88158V9.73H33.8328V9.88158V10.0332H35.4611V9.88158ZM33.8328 9.88158H33.9844V8.46053H33.8328H33.6812V9.88158H33.8328ZM33.8328 8.46053V8.61211H35.4611V8.46053V8.30895H33.8328V8.46053ZM35.4611 8.46053H35.6127V5.70724H35.4611H35.3095V8.46053H35.4611ZM35.4611 5.70724V5.85882H37.2374V5.70724V5.55566H35.4611V5.70724ZM37.2374 5.70724H37.0858V8.46053H37.2374H37.389V5.70724H37.2374ZM37.2374 8.46053V8.61211H39.4677V8.46053V8.30895H37.2374V8.46053ZM39.4677 8.46053H39.3161V9.88158H39.4677H39.6193V8.46053H39.4677ZM39.4677 9.88158V9.73H37.2374V9.88158V10.0332H39.4677V9.88158ZM37.2374 9.88158H37.0858V15.9507H37.2374H37.389V9.88158H37.2374ZM37.2374 15.9507H37.0858C37.0858 16.5684 37.2053 17.0472 37.4813 17.3462L37.5927 17.2434L37.7041 17.1406C37.5064 16.9264 37.389 16.5435 37.389 15.9507H37.2374ZM37.5927 17.2434L37.4826 17.3477C37.7602 17.6407 38.1912 17.77 38.7374 17.77V17.6184V17.4668C38.231 17.4668 37.8988 17.3462 37.7027 17.1392L37.5927 17.2434ZM38.7374 17.6184V17.77C38.8778 17.77 39.0028 17.7667 39.112 17.7598L39.1026 17.6086L39.0931 17.4573C38.9918 17.4636 38.8733 17.4668 38.7374 17.4668V17.6184ZM39.1026 17.6086L39.112 17.7598C39.2193 17.7531 39.3427 17.7431 39.4821 17.7298L39.4677 17.5789L39.4533 17.4281C39.3163 17.4411 39.1963 17.4508 39.0931 17.4573L39.1026 17.6086ZM39.4677 17.5789H39.3161V19.0197H39.4677H39.6193V17.5789H39.4677ZM39.4677 19.0197L39.4481 18.8694C39.2973 18.8891 39.1399 18.9088 38.9759 18.9284L38.994 19.0789L39.0121 19.2294C39.177 19.2097 39.3354 19.1899 39.4873 19.17L39.4677 19.0197ZM38.994 19.0789L38.9759 18.9284C38.8176 18.9474 38.6559 18.957 38.4907 18.957V19.1086V19.2601C38.6676 19.2601 38.8414 19.2499 39.0121 19.2294L38.994 19.0789ZM42.789 18.5263L42.7101 18.6558L42.7107 18.6561L42.789 18.5263ZM41.1015 16.6414L40.9651 16.7075L40.9655 16.7084L41.1015 16.6414ZM41.1015 10.8092L40.9655 10.7423L40.9651 10.7432L41.1015 10.8092ZM42.789 8.93421L42.867 9.06419L42.8673 9.06398L42.789 8.93421ZM47.9502 8.93421L47.8713 9.06367L47.8722 9.06419L47.9502 8.93421ZM49.6278 10.8092L49.4914 10.8752L49.4918 10.8761L49.6278 10.8092ZM49.6278 16.6414L49.4918 16.5745L49.4914 16.5754L49.6278 16.6414ZM47.9502 18.5263L47.8713 18.3969L47.9502 18.5263ZM48.0982 15.8618L47.9586 15.8029L47.9582 15.8037L48.0982 15.8618ZM48.0982 11.5987L47.9582 11.6569L47.9591 11.6588L48.0982 11.5987ZM43.6969 10.2566L43.6132 10.1302L43.6124 10.1307L43.6969 10.2566ZM42.6311 11.5987L42.4917 11.5392L42.4914 11.5399L42.6311 11.5987ZM42.6311 15.8618L42.4909 15.9195L42.4917 15.9214L42.6311 15.8618ZM43.6969 17.2039L43.6124 17.3298L43.6132 17.3303L43.6969 17.2039ZM45.3745 19.1875V19.0359C44.4041 19.0359 43.5703 18.8209 42.8673 18.3965L42.789 18.5263L42.7107 18.6561C43.4682 19.1134 44.3581 19.3391 45.3745 19.3391V19.1875ZM42.789 18.5263L42.8678 18.3969C42.1706 17.9722 41.6271 17.3664 41.2375 16.5745L41.1015 16.6414L40.9655 16.7084C41.3786 17.548 41.96 18.1989 42.7101 18.6558L42.789 18.5263ZM41.1015 16.6414L41.2379 16.5754C40.8552 15.7845 40.661 14.8409 40.661 13.7401H40.5094H40.3578C40.3578 14.8762 40.5583 15.8668 40.9651 16.7075L41.1015 16.6414ZM40.5094 13.7401H40.661V13.7204H40.5094H40.3578V13.7401H40.5094ZM40.5094 13.7204H40.661C40.661 12.6129 40.8553 11.6661 41.2379 10.8752L41.1015 10.8092L40.9651 10.7432C40.5582 11.5839 40.3578 12.5779 40.3578 13.7204H40.5094ZM41.1015 10.8092L41.2375 10.8761C41.627 10.0844 42.1703 9.48223 42.867 9.06419L42.789 8.93421L42.711 8.80423C41.9604 9.25461 41.3786 9.90246 40.9655 10.7423L41.1015 10.8092ZM42.789 8.93421L42.8673 9.06398C43.5705 8.63958 44.401 8.42461 45.3647 8.42461V8.27303V8.12145C44.3546 8.12145 43.4681 8.34727 42.7107 8.80444L42.789 8.93421ZM45.3647 8.27303V8.42461C46.3419 8.42461 47.1754 8.63977 47.8713 9.06367L47.9502 8.93421L48.029 8.80476C47.2776 8.34707 46.3874 8.12145 45.3647 8.12145V8.27303ZM47.9502 8.93421L47.8722 9.06419C48.5687 9.48209 49.1085 10.0839 49.4914 10.8752L49.6278 10.8092L49.7643 10.7432C49.3577 9.9029 48.779 9.25475 48.0282 8.80423L47.9502 8.93421ZM49.6278 10.8092L49.4918 10.8761C49.8807 11.6667 50.0782 12.6132 50.0782 13.7204H50.2298H50.3814C50.3814 12.5776 50.1775 11.5833 49.7638 10.7423L49.6278 10.8092ZM50.2298 13.7204H50.0782V13.7401H50.2298H50.3814V13.7204H50.2298ZM50.2298 13.7401H50.0782C50.0782 14.8406 49.8808 15.7838 49.4918 16.5745L49.6278 16.6414L49.7638 16.7084C50.1775 15.8675 50.3814 14.8765 50.3814 13.7401H50.2298ZM49.6278 16.6414L49.4914 16.5754C49.1084 17.3669 48.5684 17.9723 47.8713 18.3969L47.9502 18.5263L48.029 18.6558C48.7794 18.1987 49.3577 17.5476 49.7643 16.7075L49.6278 16.6414ZM47.9502 18.5263L47.8713 18.3969C47.1752 18.8208 46.345 19.0359 45.3745 19.0359V19.1875V19.3391C46.3909 19.3391 47.2778 19.1134 48.029 18.6558L47.9502 18.5263ZM45.3745 17.6678V17.8193C46.0506 17.8193 46.6372 17.6585 47.1268 17.3298L47.0423 17.2039L46.9578 17.0781C46.5264 17.3678 46.0011 17.5162 45.3745 17.5162V17.6678ZM47.0423 17.2039L47.1268 17.3298C47.6155 17.0017 47.985 16.529 48.2382 15.92L48.0982 15.8618L47.9582 15.8037C47.7246 16.3657 47.3902 16.7878 46.9578 17.0781L47.0423 17.2039ZM48.0982 15.8618L48.2379 15.9208C48.4976 15.3056 48.6248 14.5773 48.6248 13.7401H48.4732H48.3216C48.3216 14.5477 48.1988 15.2339 47.9586 15.8029L48.0982 15.8618ZM48.4732 13.7401H48.6248V13.7204H48.4732H48.3216V13.7401H48.4732ZM48.4732 13.7204H48.6248C48.6248 12.8706 48.4978 12.1416 48.2374 11.5386L48.0982 11.5987L47.9591 11.6588C48.1987 12.2137 48.3216 12.8992 48.3216 13.7204H48.4732ZM48.0982 11.5987L48.2382 11.5405C47.985 10.9315 47.6155 10.4588 47.1268 10.1307L47.0423 10.2566L46.9578 10.3824C47.3902 10.6727 47.7246 11.0948 47.9582 11.6569L48.0982 11.5987ZM47.0423 10.2566L47.1268 10.1307C46.6369 9.80183 46.0469 9.64118 45.3647 9.64118V9.79276V9.94434C45.9982 9.94434 46.5266 10.0929 46.9578 10.3824L47.0423 10.2566ZM45.3647 9.79276V9.64118C44.6948 9.64118 44.1087 9.80217 43.6132 10.1302L43.6969 10.2566L43.7806 10.383C44.2193 10.0926 44.7451 9.94434 45.3647 9.94434V9.79276ZM43.6969 10.2566L43.6124 10.1307C43.1241 10.4586 42.7515 10.9308 42.4917 11.5392L42.6311 11.5987L42.7705 11.6582C43.0107 11.0955 43.3486 10.673 43.7814 10.3824L43.6969 10.2566ZM42.6311 11.5987L42.4914 11.5399C42.238 12.1425 42.1144 12.871 42.1144 13.7204H42.266H42.4176C42.4176 12.8987 42.5374 12.2127 42.7708 11.6574L42.6311 11.5987ZM42.266 13.7204H42.1144V13.7401H42.266H42.4176V13.7204H42.266ZM42.266 13.7401H42.1144C42.1144 14.5769 42.2382 15.3047 42.4909 15.9195L42.6311 15.8618L42.7713 15.8042C42.5372 15.2348 42.4176 14.5481 42.4176 13.7401H42.266ZM42.6311 15.8618L42.4917 15.9214C42.7515 16.5298 43.1241 17.0019 43.6124 17.3298L43.6969 17.2039L43.7814 17.0781C43.3486 16.7875 43.0107 16.365 42.7705 15.8023L42.6311 15.8618ZM43.6969 17.2039L43.6132 17.3303C44.109 17.6585 44.6984 17.8193 45.3745 17.8193V17.6678V17.5162C44.748 17.5162 44.219 17.3678 43.7806 17.0776L43.6969 17.2039ZM52.0511 22.523H51.8995V22.6746H52.0511V22.523ZM52.0511 8.46053V8.30895H51.8995V8.46053H52.0511ZM53.7682 8.46053H53.9198V8.30895H53.7682V8.46053ZM53.7682 10.1678H53.6166V10.3193H53.7682V10.1678ZM53.8965 10.1678V10.3193H53.9861L54.0293 10.2408L53.8965 10.1678ZM54.7057 9.15132L54.6069 9.03639L54.6057 9.03739L54.7057 9.15132ZM55.8208 8.5L55.7696 8.35735L55.7689 8.35761L55.8208 8.5ZM59.5314 8.95395L59.4459 9.07911L59.4467 9.07968L59.5314 8.95395ZM61.0708 10.8487L60.9323 10.9101L60.9327 10.9111L61.0708 10.8487ZM61.0708 16.6217L60.9327 16.5593L60.9323 16.5603L61.0708 16.6217ZM59.5314 18.5164L59.616 18.6422L59.5314 18.5164ZM55.8307 18.9605L55.7782 19.1027L55.7801 19.1034L55.8307 18.9605ZM54.6958 18.3092L54.597 18.4241L54.5983 18.4253L54.6958 18.3092ZM53.8965 17.3125L54.0302 17.241L53.9874 17.1609H53.8965V17.3125ZM53.7682 17.3125V17.1609H53.6166V17.3125H53.7682ZM53.7682 22.523V22.6746H53.9198V22.523H53.7682ZM59.5018 15.8421L59.6417 15.9003L59.642 15.8997L59.5018 15.8421ZM55.1794 10.2763L55.2651 10.4013L55.2663 10.4005L55.1794 10.2763ZM54.1136 15.8322L53.974 15.8912L53.9742 15.8918L54.1136 15.8322ZM55.1794 17.1941L55.0925 17.3183L55.0937 17.3191L55.1794 17.1941ZM52.0511 22.523H52.2027V8.46053H52.0511H51.8995V22.523H52.0511ZM52.0511 8.46053V8.61211H53.7682V8.46053V8.30895H52.0511V8.46053ZM53.7682 8.46053H53.6166V10.1678H53.7682H53.9198V8.46053H53.7682ZM53.7682 10.1678V10.3193H53.8965V10.1678V10.0162H53.7682V10.1678ZM53.8965 10.1678L54.0293 10.2408C54.2384 9.86072 54.4972 9.53595 54.8057 9.26525L54.7057 9.15132L54.6057 9.03739C54.2695 9.33247 53.9888 9.68533 53.7637 10.0947L53.8965 10.1678ZM54.7057 9.15132L54.8045 9.26624C55.1194 8.99545 55.4752 8.78755 55.8728 8.64239L55.8208 8.5L55.7689 8.35761C55.3375 8.51508 54.9499 8.74139 54.6069 9.03639L54.7057 9.15132ZM55.8208 8.5L55.8721 8.64265C56.2751 8.49782 56.7148 8.42461 57.1926 8.42461V8.27303V8.12145C56.6834 8.12145 56.2087 8.19955 55.7696 8.35735L55.8208 8.5ZM57.1926 8.27303V8.42461C58.0603 8.42461 58.8094 8.64427 59.4459 9.07911L59.5314 8.95395L59.6169 8.82879C58.9244 8.35573 58.1142 8.12145 57.1926 8.12145V8.27303ZM59.5314 8.95395L59.4467 9.07968C60.0849 9.50935 60.5806 10.1174 60.9323 10.9101L61.0708 10.8487L61.2094 10.7872C60.8374 9.94843 60.3068 9.29328 59.616 8.82821L59.5314 8.95395ZM61.0708 10.8487L60.9327 10.9111C61.2905 11.7033 61.4719 12.6384 61.4719 13.7204H61.6235H61.7751C61.7751 12.605 61.588 11.6256 61.209 10.7863L61.0708 10.8487ZM61.6235 13.7204H61.4719V13.7401H61.6235H61.7751V13.7204H61.6235ZM61.6235 13.7401H61.4719C61.4719 14.8288 61.2904 15.7672 60.9327 16.5593L61.0708 16.6217L61.209 16.6841C61.5881 15.8447 61.7751 14.862 61.7751 13.7401H61.6235ZM61.0708 16.6217L60.9323 16.5603C60.5806 17.353 60.0849 17.961 59.4467 18.3907L59.5314 18.5164L59.616 18.6422C60.3068 18.1771 60.8374 17.522 61.2094 16.6832L61.0708 16.6217ZM59.5314 18.5164L59.4467 18.3907C58.8099 18.8194 58.0638 19.0359 57.2024 19.0359V19.1875V19.3391C58.1173 19.3391 58.9238 19.1082 59.616 18.6422L59.5314 18.5164ZM57.2024 19.1875V19.0359C56.7315 19.0359 56.2915 18.9628 55.8813 18.8176L55.8307 18.9605L55.7801 19.1034C56.2252 19.2609 56.6996 19.3391 57.2024 19.3391V19.1875ZM55.8307 18.9605L55.8832 18.8183C55.471 18.6661 55.1081 18.4576 54.7933 18.1931L54.6958 18.3092L54.5983 18.4253C54.9415 18.7135 55.3352 18.9391 55.7782 19.1027L55.8307 18.9605ZM54.6958 18.3092L54.7947 18.1943C54.4799 17.9236 54.2253 17.6061 54.0302 17.241L53.8965 17.3125L53.7628 17.384C53.9756 17.7821 54.2539 18.1291 54.597 18.4241L54.6958 18.3092ZM53.8965 17.3125V17.1609H53.7682V17.3125V17.4641H53.8965V17.3125ZM53.7682 17.3125H53.6166V22.523H53.7682H53.9198V17.3125H53.7682ZM53.7682 22.523V22.3714H52.0511V22.523V22.6746H53.7682V22.523ZM56.8176 17.6678V17.8193C57.4817 17.8193 58.0592 17.6546 58.5423 17.3185L58.4557 17.1941L58.3691 17.0696C57.9444 17.3651 57.4297 17.5162 56.8176 17.5162V17.6678ZM58.4557 17.1941L58.5423 17.3185C59.0233 16.9839 59.3889 16.5085 59.6417 15.9003L59.5018 15.8421L59.3618 15.7839C59.1278 16.3467 58.796 16.7727 58.3691 17.0696L58.4557 17.1941ZM59.5018 15.8421L59.642 15.8997C59.8946 15.2852 60.0185 14.5641 60.0185 13.7401H59.8669H59.7153C59.7153 14.5346 59.5958 15.2148 59.3616 15.7845L59.5018 15.8421ZM59.8669 13.7401H60.0185V13.7204H59.8669H59.7153V13.7401H59.8669ZM59.8669 13.7204H60.0185C60.0185 12.8901 59.8947 12.1687 59.6417 11.5602L59.5018 11.6184L59.3618 11.6766C59.5957 12.2392 59.7153 12.9191 59.7153 13.7204H59.8669ZM59.5018 11.6184L59.6417 11.5602C59.3889 10.952 59.0233 10.4767 58.5423 10.142L58.4557 10.2664L58.3691 10.3909C58.796 10.6878 59.1278 11.1138 59.3618 11.6766L59.5018 11.6184ZM58.4557 10.2664L58.5423 10.142C58.0592 9.80594 57.4817 9.64118 56.8176 9.64118V9.79276V9.94434C57.4297 9.94434 57.9444 10.0954 58.3691 10.3909L58.4557 10.2664ZM56.8176 9.79276V9.64118C56.1589 9.64118 55.5816 9.80977 55.0925 10.1521L55.1794 10.2763L55.2663 10.4005C55.6983 10.0981 56.2131 9.94434 56.8176 9.94434V9.79276ZM55.1794 10.2763L55.0937 10.1513C54.6062 10.4856 54.2339 10.9606 53.9742 11.5688L54.1136 11.6283L54.253 11.6878C54.4933 11.125 54.8315 10.6986 55.2651 10.4013L55.1794 10.2763ZM54.1136 11.6283L53.9742 11.5688C53.7143 12.1775 53.587 12.8961 53.587 13.7204H53.7386H53.8902C53.8902 12.9263 54.0129 12.2502 54.253 11.6878L54.1136 11.6283ZM53.7386 13.7204H53.587V13.7401H53.7386H53.8902V13.7204H53.7386ZM53.7386 13.7401H53.587C53.587 14.5581 53.7144 15.2764 53.974 15.8912L54.1136 15.8322L54.2532 15.7733C54.0128 15.2038 53.8902 14.5274 53.8902 13.7401H53.7386ZM54.1136 15.8322L53.9742 15.8918C54.2338 16.4998 54.6058 16.9776 55.0925 17.3183L55.1794 17.1941L55.2663 17.0699C54.8319 16.7658 54.4934 16.3358 54.253 15.7727L54.1136 15.8322ZM55.1794 17.1941L55.0937 17.3191C55.5827 17.6544 56.1595 17.8193 56.8176 17.8193V17.6678V17.5162C56.2124 17.5162 55.6972 17.3653 55.2651 17.0691L55.1794 17.1941ZM63.4645 19H63.3129V19.1516H63.4645V19ZM63.4645 8.46053V8.30895H63.3129V8.46053H63.4645ZM65.1816 8.46053H65.3332V8.30895H65.1816V8.46053ZM65.1816 10.0493H65.0301V10.2009H65.1816V10.0493ZM65.3099 10.0493V10.2009H65.411L65.4498 10.1076L65.3099 10.0493ZM69.4448 8.50987L69.386 8.64957L69.3868 8.64993L69.4448 8.50987ZM70.4316 9.17105L70.3232 9.27697L70.4316 9.17105ZM71.0928 10.1678L70.9536 10.2278L70.9931 10.3193H71.0928V10.1678ZM71.2112 10.1678V10.3193H71.3056L71.3473 10.2346L71.2112 10.1678ZM73.0961 8.50987L73.1474 8.65252L73.1486 8.65206L73.0961 8.50987ZM76.2737 8.6875L76.2004 8.82018L76.2025 8.82129L76.2737 8.6875ZM77.4283 9.86184L77.2935 9.93101L77.2942 9.93237L77.4283 9.86184ZM77.8329 19V19.1516H77.9845V19H77.8329ZM76.1158 19H75.9643V19.1516H76.1158V19ZM75.8691 10.8289L75.7315 10.8925L75.7325 10.8946L75.8691 10.8289ZM75.1389 10.0592L75.0657 10.192L75.0689 10.1937L75.1389 10.0592ZM72.652 10.1283L72.73 10.2583L72.7317 10.2572L72.652 10.1283ZM71.4974 19V19.1516H71.649V19H71.4974ZM69.7803 19H69.6287V19.1516H69.7803V19ZM69.5139 10.7796L69.3817 10.8539L69.3824 10.8551L69.5139 10.7796ZM65.1816 19V19.1516H65.3332V19H65.1816ZM63.4645 19H63.6161V8.46053H63.4645H63.3129V19H63.4645ZM63.4645 8.46053V8.61211H65.1816V8.46053V8.30895H63.4645V8.46053ZM65.1816 8.46053H65.0301V10.0493H65.1816H65.3332V8.46053H65.1816ZM65.1816 10.0493V10.2009H65.3099V10.0493V9.89776H65.1816V10.0493ZM65.3099 10.0493L65.4498 10.1076C65.6685 9.58286 66.0104 9.17313 66.4772 8.87438L66.3954 8.74671L66.3137 8.61904C65.7937 8.95187 65.4119 9.41056 65.17 9.99104L65.3099 10.0493ZM66.3954 8.74671L66.4772 8.87438C66.9423 8.57668 67.5017 8.42461 68.1619 8.42461V8.27303V8.12145C67.4537 8.12145 66.8354 8.28517 66.3137 8.61904L66.3954 8.74671ZM68.1619 8.27303V8.42461C68.6255 8.42461 69.0326 8.5008 69.386 8.64957L69.4448 8.50987L69.5036 8.37017C69.1069 8.20315 68.6588 8.12145 68.1619 8.12145V8.27303ZM69.4448 8.50987L69.3868 8.64993C69.7503 8.80033 70.0619 9.0094 70.3232 9.27697L70.4316 9.17105L70.5401 9.06514C70.2488 8.76691 69.9024 8.5352 69.5027 8.36981L69.4448 8.50987ZM70.4316 9.17105L70.3232 9.27697C70.5859 9.54591 70.7961 9.86237 70.9536 10.2278L71.0928 10.1678L71.232 10.1078C71.0606 9.71 70.83 9.36199 70.5401 9.06514L70.4316 9.17105ZM71.0928 10.1678V10.3193H71.2112V10.1678V10.0162H71.0928V10.1678ZM71.2112 10.1678L71.3473 10.2346C71.5293 9.86422 71.7737 9.54473 72.081 9.27512L71.981 9.16118L71.881 9.04725C71.5435 9.34342 71.2747 9.69499 71.0752 10.1009L71.2112 10.1678ZM71.981 9.16118L72.081 9.27512C72.3884 9.0053 72.7434 8.79768 73.1474 8.65252L73.0961 8.50987L73.0448 8.36722C72.6067 8.52469 72.2183 8.75128 71.881 9.04725L71.981 9.16118ZM73.0961 8.50987L73.1486 8.65206C73.5585 8.5007 73.9946 8.42461 74.4579 8.42461V8.27303V8.12145C73.9607 8.12145 73.4889 8.20324 73.0436 8.36767L73.0961 8.50987ZM74.4579 8.27303V8.42461C75.149 8.42461 75.7277 8.55893 76.2004 8.82017L76.2737 8.6875L76.3471 8.55483C75.8198 8.26344 75.188 8.12145 74.4579 8.12145V8.27303ZM76.2737 8.6875L76.2025 8.82129C76.6816 9.07641 77.0443 9.44524 77.2935 9.93101L77.4283 9.86184L77.5632 9.79267C77.286 9.25213 76.879 8.83806 76.345 8.55371L76.2737 8.6875ZM77.4283 9.86184L77.2942 9.93237C77.55 10.419 77.6814 11.012 77.6814 11.7171H77.8329H77.9845C77.9845 10.9748 77.8462 10.331 77.5625 9.79132L77.4283 9.86184ZM77.8329 11.7171H77.6814V19H77.8329H77.9845V11.7171H77.8329ZM77.8329 19V18.8484H76.1158V19V19.1516H77.8329V19ZM76.1158 19H76.2674V12.1118H76.1158H75.9643V19H76.1158ZM76.1158 12.1118H76.2674C76.2674 11.5835 76.1829 11.1318 76.0057 10.7633L75.8691 10.8289L75.7325 10.8946C75.8843 11.2103 75.9643 11.6138 75.9643 12.1118H76.1158ZM75.8691 10.8289L76.0068 10.7654C75.835 10.3934 75.5681 10.1115 75.2088 9.92473L75.1389 10.0592L75.0689 10.1937C75.3676 10.349 75.5874 10.5803 75.7315 10.8925L75.8691 10.8289ZM75.1389 10.0592L75.212 9.92645C74.8612 9.73313 74.4295 9.64118 73.925 9.64118V9.79276V9.94434C74.3943 9.94434 74.7718 10.03 75.0657 10.192L75.1389 10.0592ZM73.925 9.79276V9.64118C73.4142 9.64118 72.9614 9.75883 72.5723 9.99936L72.652 10.1283L72.7317 10.2572C73.0663 10.0504 73.4622 9.94434 73.925 9.94434V9.79276ZM72.652 10.1283L72.574 9.99831C72.1894 10.2291 71.8876 10.5414 71.6707 10.9332L71.8033 11.0066L71.936 11.08C72.127 10.735 72.391 10.4617 72.73 10.2583L72.652 10.1283ZM71.8033 11.0066L71.6707 10.9332C71.4532 11.3261 71.3458 11.7663 71.3458 12.25H71.4974H71.649C71.649 11.8127 71.7456 11.4239 71.936 11.08L71.8033 11.0066ZM71.4974 12.25H71.3458V19H71.4974H71.649V12.25H71.4974ZM71.4974 19V18.8484H69.7803V19V19.1516H71.4974V19ZM69.7803 19H69.9319V11.8651H69.7803H69.6287V19H69.7803ZM69.7803 11.8651H69.9319C69.9319 11.4285 69.8381 11.0398 69.6453 10.7041L69.5139 10.7796L69.3824 10.8551C69.5449 11.1379 69.6287 11.4728 69.6287 11.8651H69.7803ZM69.5139 10.7796L69.646 10.7053C69.4536 10.3632 69.1784 10.0992 68.8239 9.91486L68.754 10.0493L68.6841 10.1838C68.9875 10.3416 69.2189 10.5644 69.3818 10.8539L69.5139 10.7796ZM68.754 10.0493L68.8239 9.91486C68.4697 9.73064 68.0599 9.64118 67.5994 9.64118V9.79276V9.94434C68.0204 9.94434 68.3804 10.0259 68.6841 10.1838L68.754 10.0493ZM67.5994 9.79276V9.64118C67.1175 9.64118 66.6777 9.76737 66.2839 10.0205L66.3658 10.148L66.4478 10.2755C66.7909 10.055 67.1734 9.94434 67.5994 9.94434V9.79276ZM66.3658 10.148L66.2839 10.0205C65.8926 10.2721 65.5855 10.6111 65.3632 11.0348L65.4974 11.1053L65.6316 11.1757C65.8304 10.7968 66.1022 10.4977 66.4478 10.2755L66.3658 10.148ZM65.4974 11.1053L65.3632 11.0348C65.1403 11.4598 65.0301 11.9316 65.0301 12.4474H65.1816H65.3332C65.3332 11.9763 65.4335 11.5534 65.6316 11.1757L65.4974 11.1053ZM65.1816 12.4474H65.0301V19H65.1816H65.3332V12.4474H65.1816ZM65.1816 19V18.8484H63.4645V19V19.1516H65.1816V19ZM81.2233 18.8026L81.1569 18.9389L81.1576 18.9392L81.2233 18.8026ZM79.97 17.7171L79.8423 17.7987L79.8437 17.8008L79.97 17.7171ZM79.9602 14.4408L79.8346 14.3559L79.8343 14.3563L79.9602 14.4408ZM83.3549 12.9309L83.3635 13.0823L83.3638 13.0822L83.3549 12.9309ZM87.2332 12.7039H87.3848V12.5432L87.2244 12.5526L87.2332 12.7039ZM87.2332 14.0658L87.2425 14.2171L87.3848 14.2083V14.0658H87.2332ZM83.5523 14.2928L83.5613 14.4441L83.5616 14.4441L83.5523 14.2928ZM81.8253 14.7961L81.7327 14.6761L81.7317 14.6769L81.8253 14.7961ZM81.8648 17.2533L81.7738 17.3746L81.7748 17.3753L81.8648 17.2533ZM85.9799 16.4046L85.8532 16.3215L85.8522 16.323L85.9799 16.4046ZM85.7727 10.3158L85.6723 10.4294L85.6733 10.4302L85.7727 10.3158ZM81.6378 11.1645L81.4927 11.1198L81.4908 11.1277L81.6378 11.1645ZM81.6279 11.2039V11.3555H81.7463L81.775 11.2407L81.6279 11.2039ZM79.9306 11.2039L79.7805 11.1825L79.7558 11.3555H79.9306V11.2039ZM79.9404 11.1349L80.0905 11.1563L80.0905 11.1561L79.9404 11.1349ZM80.6016 9.65461L80.7173 9.75252L80.7181 9.75164L80.6016 9.65461ZM82.0227 8.63816L81.965 8.49796L81.9645 8.49819L82.0227 8.63816ZM86.2464 8.69737L86.1816 8.83442L86.1828 8.835L86.2464 8.69737ZM87.6181 9.90132L87.4881 9.9793L87.4885 9.98003L87.6181 9.90132ZM88.0918 19V19.1516H88.2433V19H88.0918ZM86.3747 19H86.2231V19.1516H86.3747V19ZM86.3747 17.4013H86.5262V17.2497H86.3747V17.4013ZM86.2464 17.4013V17.2497H86.159L86.1152 17.3254L86.2464 17.4013ZM84.3418 18.9803L84.2931 18.8367L84.2924 18.8369L84.3418 18.9803ZM83.0293 19.1875V19.0359C82.3779 19.0359 81.7989 18.9115 81.2891 18.6661L81.2233 18.8026L81.1576 18.9392C81.7136 19.2069 82.3385 19.3391 83.0293 19.3391V19.1875ZM81.2233 18.8026L81.2898 18.6664C80.7866 18.4211 80.39 18.0769 80.0964 17.6334L79.97 17.7171L79.8437 17.8008C80.1685 18.2915 80.6074 18.671 81.1569 18.9389L81.2233 18.8026ZM79.97 17.7171L80.0978 17.6355C79.8128 17.1894 79.6677 16.6626 79.6677 16.0493H79.5161H79.3645C79.3645 16.7124 79.5221 17.2975 79.8423 17.7987L79.97 17.7171ZM79.5161 16.0493H79.6677V16.0296H79.5161H79.3645V16.0493H79.5161ZM79.5161 16.0296H79.6677C79.6677 15.4362 79.8094 14.9372 80.086 14.5253L79.9602 14.4408L79.8343 14.3563C79.5189 14.826 79.3645 15.3862 79.3645 16.0296H79.5161ZM79.9602 14.4408L80.0857 14.5257C80.3702 14.1053 80.7838 13.7701 81.3347 13.5232L81.2727 13.3849L81.2107 13.2466C80.6168 13.5128 80.1555 13.8816 79.8346 14.3559L79.9602 14.4408ZM81.2727 13.3849L81.3347 13.5232C81.8859 13.2761 82.5608 13.1276 83.3635 13.0823L83.3549 12.9309L83.3464 12.7796C82.5174 12.8264 81.8042 12.9805 81.2107 13.2466L81.2727 13.3849ZM83.3549 12.9309L83.3638 13.0822L87.2421 12.8553L87.2332 12.7039L87.2244 12.5526L83.3461 12.7796L83.3549 12.9309ZM87.2332 12.7039H87.0816V14.0658H87.2332H87.3848V12.7039H87.2332ZM87.2332 14.0658L87.2239 13.9145L83.543 14.1415L83.5523 14.2928L83.5616 14.4441L87.2425 14.2171L87.2332 14.0658ZM83.5523 14.2928L83.5433 14.1415C82.7543 14.1883 82.1428 14.3595 81.7327 14.6761L81.8253 14.7961L81.9179 14.916C82.2578 14.6537 82.7977 14.4894 83.5613 14.4441L83.5523 14.2928ZM81.8253 14.7961L81.7317 14.6769C81.3229 14.9981 81.1211 15.4454 81.1211 16H81.2727H81.4243C81.4243 15.5283 81.5909 15.173 81.919 14.9152L81.8253 14.7961ZM81.2727 16H81.1211V16.0197H81.2727H81.4243V16H81.2727ZM81.2727 16.0197H81.1211C81.1211 16.5901 81.3381 17.0477 81.7738 17.3746L81.8648 17.2533L81.9557 17.132C81.602 16.8668 81.4243 16.502 81.4243 16.0197H81.2727ZM81.8648 17.2533L81.7748 17.3753C82.2079 17.6948 82.7515 17.8489 83.3944 17.8489V17.6974V17.5458C82.8005 17.5458 82.3243 17.4039 81.9548 17.1313L81.8648 17.2533ZM83.3944 17.6974V17.8489C83.9875 17.8489 84.5218 17.7295 84.9934 17.4867L84.924 17.352L84.8546 17.2172C84.4315 17.435 83.946 17.5458 83.3944 17.5458V17.6974ZM84.924 17.352L84.9934 17.4867C85.4631 17.245 85.8358 16.9114 86.1076 16.4863L85.9799 16.4046L85.8522 16.323C85.6109 16.7004 85.2796 16.9985 84.8546 17.2172L84.924 17.352ZM85.9799 16.4046L86.1067 16.4877C86.3867 16.0606 86.5262 15.5809 86.5262 15.0526H86.3747H86.2231C86.2231 15.5244 86.0994 15.9459 85.8532 16.3215L85.9799 16.4046ZM86.3747 15.0526H86.5262V11.8158H86.3747H86.2231V15.0526H86.3747ZM86.3747 11.8158H86.5262C86.5262 11.1313 86.3139 10.5852 85.8721 10.2014L85.7727 10.3158L85.6733 10.4302C86.0341 10.7437 86.2231 11.1976 86.2231 11.8158H86.3747ZM85.7727 10.3158L85.873 10.2022C85.44 9.81968 84.8123 9.64118 84.0161 9.64118V9.79276V9.94434C84.7726 9.94434 85.3159 10.1145 85.6723 10.4294L85.7727 10.3158ZM84.0161 9.79276V9.64118C83.3597 9.64118 82.8075 9.76628 82.3693 10.0277L82.447 10.1579L82.5247 10.2881C82.9024 10.0627 83.3962 9.94434 84.0161 9.94434V9.79276ZM82.447 10.1579L82.3693 10.0277C81.9314 10.2891 81.6363 10.6541 81.4929 11.1199L81.6378 11.1645L81.7827 11.2091C81.9025 10.8196 82.1469 10.5135 82.5247 10.2881L82.447 10.1579ZM81.6378 11.1645L81.4908 11.1277L81.4809 11.1672L81.6279 11.2039L81.775 11.2407L81.7849 11.2012L81.6378 11.1645ZM81.6279 11.2039V11.0524H79.9306V11.2039V11.3555H81.6279V11.2039ZM79.9306 11.2039L80.0806 11.2254L80.0905 11.1563L79.9404 11.1349L79.7904 11.1134L79.7805 11.1825L79.9306 11.2039ZM79.9404 11.1349L80.0905 11.1561C80.1655 10.6249 80.3741 10.1581 80.7173 9.75252L80.6016 9.65461L80.4859 9.55669C80.1055 10.0063 79.8733 10.5264 79.7904 11.1137L79.9404 11.1349ZM80.6016 9.65461L80.7181 9.75164C81.0624 9.33843 81.5152 9.01331 82.0809 8.77812L82.0227 8.63816L81.9645 8.49819C81.3592 8.74985 80.8645 9.10236 80.4852 9.55757L80.6016 9.65461ZM82.0227 8.63816L82.0803 8.77835C82.6508 8.5438 83.3116 8.42461 84.0654 8.42461V8.27303V8.12145C83.2798 8.12145 82.5787 8.24567 81.965 8.49796L82.0227 8.63816ZM84.0654 8.27303V8.42461C84.9046 8.42461 85.6082 8.56346 86.1816 8.83442L86.2464 8.69737L86.3111 8.56032C85.6872 8.26549 84.9368 8.12145 84.0654 8.12145V8.27303ZM86.2464 8.69737L86.1828 8.835C86.756 9.09955 87.1891 9.48105 87.4881 9.9793L87.6181 9.90132L87.7481 9.82333C87.4154 9.26895 86.9341 8.84782 86.3099 8.55974L86.2464 8.69737ZM87.6181 9.90132L87.4885 9.98003C87.7874 10.4719 87.9402 11.0652 87.9402 11.7664H88.0918H88.2433C88.2433 11.0203 88.0804 10.3702 87.7476 9.82261L87.6181 9.90132ZM88.0918 11.7664H87.9402V19H88.0918H88.2433V11.7664H88.0918ZM88.0918 19V18.8484H86.3747V19V19.1516H88.0918V19ZM86.3747 19H86.5262V17.4013H86.3747H86.2231V19H86.3747ZM86.3747 17.4013V17.2497H86.2464V17.4013V17.5529H86.3747V17.4013ZM86.2464 17.4013L86.1152 17.3254C85.9067 17.6855 85.6483 17.9941 85.3399 18.2522L85.4372 18.3684L85.5344 18.4847C85.8708 18.2032 86.1519 17.8671 86.3775 17.4773L86.2464 17.4013ZM85.4372 18.3684L85.3399 18.2522C85.0323 18.5096 84.6837 18.7044 84.2931 18.8367L84.3418 18.9803L84.3904 19.1238C84.8156 18.9798 85.1973 18.7667 85.5344 18.4847L85.4372 18.3684ZM84.3418 18.9803L84.2924 18.8369C83.9087 18.969 83.4881 19.0359 83.0293 19.0359V19.1875V19.3391C83.5178 19.3391 83.9722 19.2678 84.3911 19.1236L84.3418 18.9803ZM90.3769 19H90.2253V19.1516H90.3769V19ZM90.3769 8.46053V8.30895H90.2253V8.46053H90.3769ZM92.094 8.46053H92.2456V8.30895H92.094V8.46053ZM92.094 10.0789H91.9424V10.2305H92.094V10.0789ZM92.2223 10.0789V10.2305H92.3311L92.3659 10.1274L92.2223 10.0789ZM93.2091 8.75658L93.294 8.88215L93.2944 8.88189L93.2091 8.75658ZM95.4098 8.30263L95.3902 8.45308L95.3967 8.45364L95.4098 8.30263ZM95.7552 8.34211H95.9068V8.2137L95.7801 8.19259L95.7552 8.34211ZM95.7552 10.0099L95.723 10.158L95.9068 10.1979V10.0099H95.7552ZM95.2716 9.94079L95.2536 10.0914L95.26 10.0919L95.2716 9.94079ZM93.3572 10.227L93.2867 10.0927L93.2858 10.0932L93.3572 10.227ZM92.4295 11.125L92.5603 11.2017L92.5609 11.2007L92.4295 11.125ZM92.094 19V19.1516H92.2456V19H92.094ZM90.3769 19H90.5285V8.46053H90.3769H90.2253V19H90.3769ZM90.3769 8.46053V8.61211H92.094V8.46053V8.30895H90.3769V8.46053ZM92.094 8.46053H91.9424V10.0789H92.094H92.2456V8.46053H92.094ZM92.094 10.0789V10.2305H92.2223V10.0789V9.92737H92.094V10.0789ZM92.2223 10.0789L92.3659 10.1274C92.5468 9.59106 92.8561 9.17822 93.294 8.88215L93.2091 8.75658L93.1242 8.631C92.6279 8.96652 92.2794 9.43526 92.0787 10.0305L92.2223 10.0789ZM93.2091 8.75658L93.2944 8.88189C93.7386 8.57958 94.2832 8.42461 94.9361 8.42461V8.27303V8.12145C94.2337 8.12145 93.627 8.28885 93.1238 8.63127L93.2091 8.75658ZM94.9361 8.27303V8.42461C95.0945 8.42461 95.2458 8.43411 95.3902 8.45294L95.4098 8.30263L95.4294 8.15233C95.2711 8.13168 95.1066 8.12145 94.9361 8.12145V8.27303ZM95.4098 8.30263L95.3967 8.45364C95.5469 8.4667 95.6573 8.47946 95.7303 8.49162L95.7552 8.34211L95.7801 8.19259C95.6952 8.17844 95.5754 8.16488 95.4229 8.15162L95.4098 8.30263ZM95.7552 8.34211H95.6036V10.0099H95.7552H95.9068V8.34211H95.7552ZM95.7552 10.0099L95.7874 9.86175C95.6286 9.82723 95.4605 9.80329 95.2833 9.78966L95.2716 9.94079L95.26 10.0919C95.4249 10.1046 95.5791 10.1267 95.723 10.158L95.7552 10.0099ZM95.2716 9.94079L95.2897 9.79029C95.1184 9.76974 94.9347 9.75961 94.7387 9.75961V9.91118V10.0628C94.9244 10.0628 95.0959 10.0724 95.2536 10.0913L95.2716 9.94079ZM94.7387 9.91118V9.75961C94.1981 9.75961 93.7128 9.86925 93.2867 10.0927L93.3572 10.227L93.4276 10.3612C93.8042 10.1636 94.2399 10.0628 94.7387 10.0628V9.91118ZM93.3572 10.227L93.2858 10.0932C92.866 10.3171 92.536 10.6366 92.2982 11.0493L92.4295 11.125L92.5609 11.2007C92.7704 10.8371 93.0588 10.5579 93.4285 10.3607L93.3572 10.227ZM92.4295 11.125L92.2988 11.0483C92.0592 11.457 91.9424 11.935 91.9424 12.477H92.094H92.2456C92.2456 11.9794 92.3525 11.5562 92.5603 11.2017L92.4295 11.125ZM92.094 12.477H91.9424V19H92.094H92.2456V12.477H92.094ZM92.094 19V18.8484H90.3769V19V19.1516H92.094V19Z" fill="#242226" mask="url(#path-2-outside-1_170_119)"/>
<defs>
<linearGradient id="paint0_linear_170_119" x1="13.3591" y1="3.48676" x2="13.3591" y2="20.5132" gradientUnits="userSpaceOnUse">
<stop stop-color="#006BD8"/>
<stop offset="1" stop-color="#006CD8"/>
</linearGradient>
</defs>
</svg>
