<svg width="82" height="20" viewBox="0 0 82 20" fill="none" xmlns="http://www.w3.org/2000/svg">
<path d="M20.8458 10C21.0077 10.9684 21.1082 11.9488 21.1287 12.9306C21.1413 13.5342 21.1245 14.1402 21.0531 14.74C21.0088 15.1117 20.944 15.4831 20.8362 15.842C20.7688 16.0663 20.6843 16.2876 20.5666 16.4906C20.4951 16.6138 20.4106 16.7308 20.3076 16.8297C19.5532 17.5546 18.5121 16.6096 17.9766 16.0711C17.8487 15.9425 17.7248 15.81 17.6037 15.6749C17.4514 15.5048 17.3035 15.3308 17.1589 15.1542C16.9716 14.9255 16.7897 14.6926 16.6111 14.4571C14.7012 11.9383 13.0996 9.19906 11.1308 6.72254C10.0795 5.40006 8.86332 3.94858 7.29232 3.22983C6.98337 3.08848 6.65668 2.98158 6.31951 2.9345C4.63562 2.69938 3.47383 4.1414 2.7939 5.49018C1.62803 7.80289 1.15533 10.5685 1.13391 13.1409C1.12502 14.2083 1.14577 15.4623 1.66453 16.4286C1.73555 16.5609 1.81999 16.6874 1.92428 16.7959C2.74249 17.6472 3.9225 16.4665 4.4765 15.8771C4.61793 15.7267 4.75499 15.5721 4.88896 15.415C5.05868 15.216 5.22345 15.0128 5.3849 14.807C5.59377 14.5408 5.79708 14.2703 5.99699 13.9973C6.24747 13.6552 6.49259 13.3093 6.73496 12.9615C7.29599 12.1563 7.84277 11.3413 8.39454 10.5298C8.82574 9.89568 9.25957 9.26323 9.70395 8.6382C10.0605 8.1367 10.4238 7.63988 10.7991 7.15215C11.0874 6.77735 11.3828 6.40786 11.6887 6.04713C11.9302 5.76222 12.1783 5.48274 12.4352 5.21159C13.6309 3.94973 15.5327 2.2651 17.4019 3.15455C17.6628 3.27869 17.9025 3.44418 18.1198 3.63403C18.4651 3.93584 18.7554 4.29722 19.0067 4.6796C19.4089 5.29159 19.7177 5.96283 19.9737 6.64753C20.3781 7.72958 20.6541 8.85925 20.8453 9.99739" stroke="#242225" stroke-width="2.26451" stroke-linecap="square" stroke-linejoin="round"/>
<mask id="path-2-outside-1_170_119" maskUnits="userSpaceOnUse" x="27.7993" y="4" width="54" height="16" fill="black">
<rect fill="white" x="27.7993" y="4" width="54" height="16"/>
<path d="M32.2812 16.0658C31.3711 16.0658 30.7105 15.8821 30.2993 15.5148C29.8936 15.1475 29.6908 14.5417 29.6908 13.6974V8.31908H28.2927V7.13487H29.6908V4.84046H31.171V7.13487H33.1118V8.31908H31.171V13.3355C31.171 13.8564 31.2697 14.2319 31.4671 14.4622C31.6644 14.687 31.9934 14.7993 32.4539 14.7993C32.58 14.7993 32.6869 14.7966 32.7746 14.7911C32.8678 14.7856 32.9802 14.7774 33.1118 14.7664V15.9836C32.9748 16.0055 32.8377 16.0247 32.7006 16.0411C32.5636 16.0576 32.4238 16.0658 32.2812 16.0658ZM38.2727 16.1562C37.4339 16.1562 36.7074 15.9726 36.0934 15.6053C35.4848 15.2325 35.0134 14.7034 34.6789 14.0181C34.35 13.3328 34.1855 12.5186 34.1855 11.5757V11.5592C34.1855 10.6107 34.35 9.79386 34.6789 9.10855C35.0134 8.42325 35.4848 7.89693 36.0934 7.52961C36.7074 7.16228 37.4339 6.97862 38.2727 6.97862C39.117 6.97862 39.8434 7.16228 40.4519 7.52961C41.0605 7.89693 41.5292 8.42325 41.8582 9.10855C42.1926 9.79386 42.3598 10.6107 42.3598 11.5592V11.5757C42.3598 12.5186 42.1926 13.3328 41.8582 14.0181C41.5292 14.7034 41.0605 15.2325 40.4519 15.6053C39.8434 15.9726 39.117 16.1562 38.2727 16.1562ZM38.2727 14.8898C38.8319 14.8898 39.3061 14.7582 39.6954 14.4951C40.0846 14.2319 40.3807 13.8536 40.5835 13.3602C40.7919 12.8668 40.896 12.2719 40.896 11.5757V11.5592C40.896 10.8575 40.7919 10.2599 40.5835 9.76645C40.3807 9.27303 40.0846 8.89748 39.6954 8.6398C39.3061 8.37665 38.8319 8.24507 38.2727 8.24507C37.7135 8.24507 37.2392 8.37665 36.85 8.6398C36.4607 8.89748 36.1619 9.27303 35.9536 9.76645C35.7507 10.2599 35.6493 10.8575 35.6493 11.5592V11.5757C35.6493 12.2719 35.7507 12.8668 35.9536 13.3602C36.1619 13.8536 36.4607 14.2319 36.85 14.4951C37.2392 14.7582 37.7135 14.8898 38.2727 14.8898ZM44.075 18.9605V7.13487H45.5059V8.54934H45.6375C45.8184 8.2204 46.0459 7.94079 46.32 7.71053C46.5942 7.47478 46.9067 7.29386 47.2575 7.16776C47.6084 7.04167 47.9894 6.97862 48.4006 6.97862C49.1517 6.97862 49.8041 7.17051 50.3579 7.55428C50.9171 7.93257 51.3502 8.46436 51.6572 9.14967C51.9642 9.83498 52.1177 10.6382 52.1177 11.5592V11.5757C52.1177 12.5022 51.9642 13.3081 51.6572 13.9934C51.3502 14.6787 50.9171 15.2105 50.3579 15.5888C49.8041 15.9671 49.1517 16.1562 48.4006 16.1562C47.9949 16.1562 47.6112 16.0932 47.2493 15.9671C46.893 15.8355 46.575 15.6546 46.2954 15.4243C46.0212 15.1941 45.8019 14.92 45.6375 14.602H45.5059V18.9605H44.075ZM48.0717 14.8898C48.6144 14.8898 49.0777 14.7582 49.4615 14.4951C49.8453 14.2264 50.1386 13.8454 50.3414 13.352C50.5498 12.8531 50.6539 12.261 50.6539 11.5757V11.5592C50.6539 10.8684 50.5498 10.2763 50.3414 9.7829C50.1386 9.28947 49.8453 8.91118 49.4615 8.64803C49.0777 8.37939 48.6144 8.24507 48.0717 8.24507C47.5344 8.24507 47.0711 8.37939 46.6819 8.64803C46.2926 8.91667 45.9938 9.2977 45.7855 9.79112C45.5772 10.2845 45.473 10.8739 45.473 11.5592V11.5757C45.473 12.2555 45.5772 12.8448 45.7855 13.3438C45.9938 13.8372 46.2926 14.2182 46.6819 14.4868C47.0711 14.7555 47.5344 14.8898 48.0717 14.8898ZM53.8493 16V7.13487H55.2802V8.48355H55.4118C55.6092 8.00658 55.9107 7.63651 56.3164 7.37336C56.7276 7.1102 57.2238 6.97862 57.8049 6.97862C58.2051 6.97862 58.5642 7.04441 58.8822 7.17599C59.2002 7.30757 59.4743 7.49123 59.7046 7.72697C59.9348 7.95724 60.1185 8.22588 60.2556 8.5329H60.3871C60.5461 8.2204 60.76 7.94901 61.0286 7.71875C61.2972 7.48301 61.607 7.30208 61.9579 7.17599C62.3142 7.04441 62.6953 6.97862 63.101 6.97862C63.704 6.97862 64.2139 7.09101 64.6306 7.31579C65.0527 7.54057 65.3734 7.86952 65.5927 8.30263C65.812 8.73026 65.9217 9.25384 65.9217 9.87336V16H64.4908V10.2023C64.4908 9.76371 64.4222 9.40186 64.2852 9.11678C64.1536 8.82621 63.9507 8.60965 63.6766 8.46711C63.4025 8.31908 63.0571 8.24507 62.6404 8.24507C62.2292 8.24507 61.8701 8.33827 61.5631 8.52467C61.2561 8.71108 61.0176 8.96053 60.8477 9.27303C60.6777 9.58004 60.5927 9.9227 60.5927 10.301V16H59.1618V9.98026C59.1618 9.62939 59.0851 9.32511 58.9316 9.06743C58.7835 8.80428 58.5697 8.60143 58.2901 8.45888C58.016 8.31634 57.6925 8.24507 57.3197 8.24507C56.9359 8.24507 56.5878 8.34649 56.2753 8.54934C55.9683 8.75219 55.7243 9.02632 55.5434 9.37171C55.368 9.71162 55.2802 10.0899 55.2802 10.5066V16H53.8493ZM70.4329 16.1562C69.8737 16.1562 69.3693 16.0493 68.9197 15.8355C68.4756 15.6217 68.122 15.3174 67.8589 14.9227C67.6012 14.528 67.4723 14.062 67.4723 13.5247V13.5082C67.4723 12.9819 67.5984 12.5323 67.8506 12.1595C68.1028 11.7813 68.4701 11.4852 68.9526 11.2714C69.4351 11.0576 70.0189 10.9315 70.7042 10.8931L73.9608 10.6957V11.8388L70.8769 12.0362C70.2026 12.0746 69.7092 12.2144 69.3967 12.4556C69.0897 12.6968 68.9362 13.0367 68.9362 13.4753V13.4918C68.9362 13.9413 69.1061 14.2922 69.446 14.5444C69.7859 14.7911 70.2136 14.9145 70.7289 14.9145C71.2169 14.9145 71.65 14.8185 72.0283 14.6266C72.4066 14.4293 72.7026 14.1634 72.9164 13.8289C73.1357 13.4945 73.2454 13.1162 73.2454 12.6941V9.93092C73.2454 9.38268 73.0782 8.96601 72.7437 8.68092C72.4148 8.39035 71.9186 8.24507 71.2552 8.24507C70.7234 8.24507 70.2876 8.34101 69.9477 8.5329C69.6078 8.7193 69.3802 8.9852 69.2651 9.33059L69.2569 9.35526H67.826L67.8342 9.30592C67.9109 8.83991 68.1028 8.43421 68.4098 8.08882C68.7223 7.73794 69.1253 7.46656 69.6187 7.27467C70.1121 7.0773 70.6741 6.97862 71.3046 6.97862C72.0283 6.97862 72.6396 7.09649 73.1385 7.33224C73.6428 7.56798 74.0239 7.9079 74.2816 8.35197C74.5447 8.79057 74.6763 9.31689 74.6763 9.93092V16H73.2454V14.6924H73.1138C72.9274 15.0049 72.6999 15.2708 72.4312 15.4901C72.1681 15.7094 71.8693 15.8766 71.5348 15.9918C71.2004 16.1014 70.8331 16.1562 70.4329 16.1562ZM76.7862 16V7.13487H78.2171V8.45066H78.3487C78.5186 7.98465 78.8064 7.62281 79.2121 7.36513C79.6178 7.10746 80.1195 6.97862 80.7171 6.97862C80.8541 6.97862 80.9885 6.98684 81.12 7.00329C81.2571 7.01426 81.3613 7.02522 81.4325 7.03618V8.42599C81.2845 8.39858 81.1392 8.37939 80.9967 8.36842C80.8596 8.35197 80.7116 8.34375 80.5526 8.34375C80.0976 8.34375 79.6946 8.43421 79.3437 8.61513C78.9928 8.79605 78.716 9.04825 78.5131 9.37171C78.3158 9.69518 78.2171 10.0735 78.2171 10.5066V16H76.7862Z"/>
</mask>
<path d="M32.2812 16.0658C31.3711 16.0658 30.7105 15.8821 30.2993 15.5148C29.8936 15.1475 29.6908 14.5417 29.6908 13.6974V8.31908H28.2927V7.13487H29.6908V4.84046H31.171V7.13487H33.1118V8.31908H31.171V13.3355C31.171 13.8564 31.2697 14.2319 31.4671 14.4622C31.6644 14.687 31.9934 14.7993 32.4539 14.7993C32.58 14.7993 32.6869 14.7966 32.7746 14.7911C32.8678 14.7856 32.9802 14.7774 33.1118 14.7664V15.9836C32.9748 16.0055 32.8377 16.0247 32.7006 16.0411C32.5636 16.0576 32.4238 16.0658 32.2812 16.0658ZM38.2727 16.1562C37.4339 16.1562 36.7074 15.9726 36.0934 15.6053C35.4848 15.2325 35.0134 14.7034 34.6789 14.0181C34.35 13.3328 34.1855 12.5186 34.1855 11.5757V11.5592C34.1855 10.6107 34.35 9.79386 34.6789 9.10855C35.0134 8.42325 35.4848 7.89693 36.0934 7.52961C36.7074 7.16228 37.4339 6.97862 38.2727 6.97862C39.117 6.97862 39.8434 7.16228 40.4519 7.52961C41.0605 7.89693 41.5292 8.42325 41.8582 9.10855C42.1926 9.79386 42.3598 10.6107 42.3598 11.5592V11.5757C42.3598 12.5186 42.1926 13.3328 41.8582 14.0181C41.5292 14.7034 41.0605 15.2325 40.4519 15.6053C39.8434 15.9726 39.117 16.1562 38.2727 16.1562ZM38.2727 14.8898C38.8319 14.8898 39.3061 14.7582 39.6954 14.4951C40.0846 14.2319 40.3807 13.8536 40.5835 13.3602C40.7919 12.8668 40.896 12.2719 40.896 11.5757V11.5592C40.896 10.8575 40.7919 10.2599 40.5835 9.76645C40.3807 9.27303 40.0846 8.89748 39.6954 8.6398C39.3061 8.37665 38.8319 8.24507 38.2727 8.24507C37.7135 8.24507 37.2392 8.37665 36.85 8.6398C36.4607 8.89748 36.1619 9.27303 35.9536 9.76645C35.7507 10.2599 35.6493 10.8575 35.6493 11.5592V11.5757C35.6493 12.2719 35.7507 12.8668 35.9536 13.3602C36.1619 13.8536 36.4607 14.2319 36.85 14.4951C37.2392 14.7582 37.7135 14.8898 38.2727 14.8898ZM44.075 18.9605V7.13487H45.5059V8.54934H45.6375C45.8184 8.2204 46.0459 7.94079 46.32 7.71053C46.5942 7.47478 46.9067 7.29386 47.2575 7.16776C47.6084 7.04167 47.9894 6.97862 48.4006 6.97862C49.1517 6.97862 49.8041 7.17051 50.3579 7.55428C50.9171 7.93257 51.3502 8.46436 51.6572 9.14967C51.9642 9.83498 52.1177 10.6382 52.1177 11.5592V11.5757C52.1177 12.5022 51.9642 13.3081 51.6572 13.9934C51.3502 14.6787 50.9171 15.2105 50.3579 15.5888C49.8041 15.9671 49.1517 16.1562 48.4006 16.1562C47.9949 16.1562 47.6112 16.0932 47.2493 15.9671C46.893 15.8355 46.575 15.6546 46.2954 15.4243C46.0212 15.1941 45.8019 14.92 45.6375 14.602H45.5059V18.9605H44.075ZM48.0717 14.8898C48.6144 14.8898 49.0777 14.7582 49.4615 14.4951C49.8453 14.2264 50.1386 13.8454 50.3414 13.352C50.5498 12.8531 50.6539 12.261 50.6539 11.5757V11.5592C50.6539 10.8684 50.5498 10.2763 50.3414 9.7829C50.1386 9.28947 49.8453 8.91118 49.4615 8.64803C49.0777 8.37939 48.6144 8.24507 48.0717 8.24507C47.5344 8.24507 47.0711 8.37939 46.6819 8.64803C46.2926 8.91667 45.9938 9.2977 45.7855 9.79112C45.5772 10.2845 45.473 10.8739 45.473 11.5592V11.5757C45.473 12.2555 45.5772 12.8448 45.7855 13.3438C45.9938 13.8372 46.2926 14.2182 46.6819 14.4868C47.0711 14.7555 47.5344 14.8898 48.0717 14.8898ZM53.8493 16V7.13487H55.2802V8.48355H55.4118C55.6092 8.00658 55.9107 7.63651 56.3164 7.37336C56.7276 7.1102 57.2238 6.97862 57.8049 6.97862C58.2051 6.97862 58.5642 7.04441 58.8822 7.17599C59.2002 7.30757 59.4743 7.49123 59.7046 7.72697C59.9348 7.95724 60.1185 8.22588 60.2556 8.5329H60.3871C60.5461 8.2204 60.76 7.94901 61.0286 7.71875C61.2972 7.48301 61.607 7.30208 61.9579 7.17599C62.3142 7.04441 62.6953 6.97862 63.101 6.97862C63.704 6.97862 64.2139 7.09101 64.6306 7.31579C65.0527 7.54057 65.3734 7.86952 65.5927 8.30263C65.812 8.73026 65.9217 9.25384 65.9217 9.87336V16H64.4908V10.2023C64.4908 9.76371 64.4222 9.40186 64.2852 9.11678C64.1536 8.82621 63.9507 8.60965 63.6766 8.46711C63.4025 8.31908 63.0571 8.24507 62.6404 8.24507C62.2292 8.24507 61.8701 8.33827 61.5631 8.52467C61.2561 8.71108 61.0176 8.96053 60.8477 9.27303C60.6777 9.58004 60.5927 9.9227 60.5927 10.301V16H59.1618V9.98026C59.1618 9.62939 59.0851 9.32511 58.9316 9.06743C58.7835 8.80428 58.5697 8.60143 58.2901 8.45888C58.016 8.31634 57.6925 8.24507 57.3197 8.24507C56.9359 8.24507 56.5878 8.34649 56.2753 8.54934C55.9683 8.75219 55.7243 9.02632 55.5434 9.37171C55.368 9.71162 55.2802 10.0899 55.2802 10.5066V16H53.8493ZM70.4329 16.1562C69.8737 16.1562 69.3693 16.0493 68.9197 15.8355C68.4756 15.6217 68.122 15.3174 67.8589 14.9227C67.6012 14.528 67.4723 14.062 67.4723 13.5247V13.5082C67.4723 12.9819 67.5984 12.5323 67.8506 12.1595C68.1028 11.7813 68.4701 11.4852 68.9526 11.2714C69.4351 11.0576 70.0189 10.9315 70.7042 10.8931L73.9608 10.6957V11.8388L70.8769 12.0362C70.2026 12.0746 69.7092 12.2144 69.3967 12.4556C69.0897 12.6968 68.9362 13.0367 68.9362 13.4753V13.4918C68.9362 13.9413 69.1061 14.2922 69.446 14.5444C69.7859 14.7911 70.2136 14.9145 70.7289 14.9145C71.2169 14.9145 71.65 14.8185 72.0283 14.6266C72.4066 14.4293 72.7026 14.1634 72.9164 13.8289C73.1357 13.4945 73.2454 13.1162 73.2454 12.6941V9.93092C73.2454 9.38268 73.0782 8.96601 72.7437 8.68092C72.4148 8.39035 71.9186 8.24507 71.2552 8.24507C70.7234 8.24507 70.2876 8.34101 69.9477 8.5329C69.6078 8.7193 69.3802 8.9852 69.2651 9.33059L69.2569 9.35526H67.826L67.8342 9.30592C67.9109 8.83991 68.1028 8.43421 68.4098 8.08882C68.7223 7.73794 69.1253 7.46656 69.6187 7.27467C70.1121 7.0773 70.6741 6.97862 71.3046 6.97862C72.0283 6.97862 72.6396 7.09649 73.1385 7.33224C73.6428 7.56798 74.0239 7.9079 74.2816 8.35197C74.5447 8.79057 74.6763 9.31689 74.6763 9.93092V16H73.2454V14.6924H73.1138C72.9274 15.0049 72.6999 15.2708 72.4312 15.4901C72.1681 15.7094 71.8693 15.8766 71.5348 15.9918C71.2004 16.1014 70.8331 16.1562 70.4329 16.1562ZM76.7862 16V7.13487H78.2171V8.45066H78.3487C78.5186 7.98465 78.8064 7.62281 79.2121 7.36513C79.6178 7.10746 80.1195 6.97862 80.7171 6.97862C80.8541 6.97862 80.9885 6.98684 81.12 7.00329C81.2571 7.01426 81.3613 7.02522 81.4325 7.03618V8.42599C81.2845 8.39858 81.1392 8.37939 80.9967 8.36842C80.8596 8.35197 80.7116 8.34375 80.5526 8.34375C80.0976 8.34375 79.6946 8.43421 79.3437 8.61513C78.9928 8.79605 78.716 9.04825 78.5131 9.37171C78.3158 9.69518 78.2171 10.0735 78.2171 10.5066V16H76.7862Z" fill="#242225"/>
<path d="M30.2993 15.5148L30.2145 15.6084L30.2152 15.609L30.2993 15.5148ZM29.6908 8.31908H29.8171V8.19276H29.6908V8.31908ZM28.2927 8.31908H28.1664V8.4454H28.2927V8.31908ZM28.2927 7.13487V7.00855H28.1664V7.13487H28.2927ZM29.6908 7.13487V7.26118H29.8171V7.13487H29.6908ZM29.6908 4.84046V4.71415H29.5644V4.84046H29.6908ZM31.171 4.84046H31.2973V4.71415H31.171V4.84046ZM31.171 7.13487H31.0447V7.26118H31.171V7.13487ZM33.1118 7.13487H33.2381V7.00855H33.1118V7.13487ZM33.1118 8.31908V8.4454H33.2381V8.31908H33.1118ZM31.171 8.31908V8.19276H31.0447V8.31908H31.171ZM31.4671 14.4622L31.3712 14.5444L31.3722 14.5455L31.4671 14.4622ZM32.7746 14.7911L32.7672 14.665L32.7668 14.665L32.7746 14.7911ZM33.1118 14.7664H33.2381V14.6292L33.1013 14.6406L33.1118 14.7664ZM33.1118 15.9836L33.1318 16.1083L33.2381 16.0913V15.9836H33.1118ZM32.2812 16.0658V15.9395C31.3833 15.9395 30.7605 15.7574 30.3835 15.4206L30.2993 15.5148L30.2152 15.609C30.6605 16.0068 31.359 16.1921 32.2812 16.1921V16.0658ZM30.2993 15.5148L30.3841 15.4212C30.0163 15.0882 29.8171 14.5252 29.8171 13.6974H29.6908H29.5644C29.5644 14.5581 29.7709 15.2068 30.2145 15.6084L30.2993 15.5148ZM29.6908 13.6974H29.8171V8.31908H29.6908H29.5644V13.6974H29.6908ZM29.6908 8.31908V8.19276H28.2927V8.31908V8.4454H29.6908V8.31908ZM28.2927 8.31908H28.4191V7.13487H28.2927H28.1664V8.31908H28.2927ZM28.2927 7.13487V7.26118H29.6908V7.13487V7.00855H28.2927V7.13487ZM29.6908 7.13487H29.8171V4.84046H29.6908H29.5644V7.13487H29.6908ZM29.6908 4.84046V4.96678H31.171V4.84046V4.71415H29.6908V4.84046ZM31.171 4.84046H31.0447V7.13487H31.171H31.2973V4.84046H31.171ZM31.171 7.13487V7.26118H33.1118V7.13487V7.00855H31.171V7.13487ZM33.1118 7.13487H32.9855V8.31908H33.1118H33.2381V7.13487H33.1118ZM33.1118 8.31908V8.19276H31.171V8.31908V8.4454H33.1118V8.31908ZM31.171 8.31908H31.0447V13.3355H31.171H31.2973V8.31908H31.171ZM31.171 13.3355H31.0447C31.0447 13.8668 31.1443 14.2797 31.3712 14.5444L31.4671 14.4622L31.563 14.38C31.3951 14.1841 31.2973 13.846 31.2973 13.3355H31.171ZM31.4671 14.4622L31.3722 14.5455C31.604 14.8095 31.9766 14.9257 32.4539 14.9257V14.7993V14.673C32.0102 14.673 31.7249 14.5644 31.562 14.3788L31.4671 14.4622ZM32.4539 14.7993V14.9257C32.5816 14.9257 32.6913 14.9229 32.7825 14.9172L32.7746 14.7911L32.7668 14.665C32.6825 14.6703 32.5784 14.673 32.4539 14.673V14.7993ZM32.7746 14.7911L32.7821 14.9172C32.8766 14.9117 32.9901 14.9033 33.1223 14.8923L33.1118 14.7664L33.1013 14.6406C32.9704 14.6515 32.8591 14.6596 32.7672 14.665L32.7746 14.7911ZM33.1118 14.7664H32.9855V15.9836H33.1118H33.2381V14.7664H33.1118ZM33.1118 15.9836L33.0919 15.8588C32.9564 15.8805 32.821 15.8995 32.6856 15.9157L32.7006 16.0411L32.7157 16.1665C32.8544 16.1499 32.9931 16.1305 33.1318 16.1083L33.1118 15.9836ZM32.7006 16.0411L32.6856 15.9157C32.5537 15.9315 32.4189 15.9395 32.2812 15.9395V16.0658V16.1921C32.4286 16.1921 32.5735 16.1836 32.7157 16.1665L32.7006 16.0411ZM36.0934 15.6053L36.0274 15.713L36.0285 15.7137L36.0934 15.6053ZM34.6789 14.0181L34.565 14.0728L34.5654 14.0735L34.6789 14.0181ZM34.6789 9.10855L34.5654 9.05315L34.565 9.05389L34.6789 9.10855ZM36.0934 7.52961L36.0285 7.4212L36.0281 7.42146L36.0934 7.52961ZM41.8582 9.10855L41.7443 9.16322L41.7447 9.16395L41.8582 9.10855ZM41.8582 14.0181L41.7447 13.9627L41.7443 13.9634L41.8582 14.0181ZM40.4519 15.6053L40.5172 15.7134L40.5179 15.713L40.4519 15.6053ZM40.5835 13.3602L40.4672 13.3111L40.4667 13.3122L40.5835 13.3602ZM40.5835 9.76645L40.4667 9.81448L40.4672 9.81558L40.5835 9.76645ZM39.6954 8.6398L39.6246 8.74445L39.6256 8.74513L39.6954 8.6398ZM36.85 8.6398L36.9197 8.74514L36.9207 8.74445L36.85 8.6398ZM35.9536 9.76645L35.8372 9.71731L35.8368 9.71842L35.9536 9.76645ZM35.9536 13.3602L35.8368 13.4082L35.8372 13.4093L35.9536 13.3602ZM38.2727 16.1562V16.0299C37.4527 16.0299 36.7495 15.8506 36.1582 15.4969L36.0934 15.6053L36.0285 15.7137C36.6653 16.0946 37.415 16.2826 38.2727 16.2826V16.1562ZM36.0934 15.6053L36.1594 15.4976C35.5727 15.1382 35.1171 14.6279 34.7924 13.9627L34.6789 14.0181L34.5654 14.0735C34.9096 14.7789 35.3969 15.3267 36.0274 15.713L36.0934 15.6053ZM34.6789 14.0181L34.7928 13.9634C34.4738 13.2988 34.3118 12.5042 34.3118 11.5757H34.1855H34.0592C34.0592 12.5331 34.2262 13.3668 34.565 14.0728L34.6789 14.0181ZM34.1855 11.5757H34.3118V11.5592H34.1855H34.0592V11.5757H34.1855ZM34.1855 11.5592H34.3118C34.3118 10.6251 34.4738 9.82777 34.7928 9.16321L34.6789 9.10855L34.565 9.05389C34.2261 9.75995 34.0592 10.5964 34.0592 11.5592H34.1855ZM34.6789 9.10855L34.7924 9.16395C35.117 8.49884 35.5725 7.99158 36.1587 7.63775L36.0934 7.52961L36.0281 7.42146C35.3972 7.80228 34.9097 8.34765 34.5654 9.05316L34.6789 9.10855ZM36.0934 7.52961L36.1582 7.63801C36.7495 7.28429 37.4527 7.10493 38.2727 7.10493V6.97862V6.8523C37.415 6.8523 36.6653 7.04027 36.0285 7.42121L36.0934 7.52961ZM38.2727 6.97862V7.10493C39.0983 7.10493 39.8012 7.28438 40.3867 7.63775L40.4519 7.52961L40.5172 7.42146C39.8856 7.04018 39.1356 6.8523 38.2727 6.8523V6.97862ZM40.4519 7.52961L40.3867 7.63775C40.9727 7.99146 41.4252 8.49847 41.7443 9.16321L41.8582 9.10855L41.9721 9.05389C41.6333 8.34802 41.1483 7.8024 40.5172 7.42146L40.4519 7.52961ZM41.8582 9.10855L41.7447 9.16395C42.0689 9.82832 42.2335 10.6254 42.2335 11.5592H42.3598H42.4862C42.4862 10.5961 42.3164 9.7594 41.9717 9.05316L41.8582 9.10855ZM42.3598 11.5592H42.2335V11.5757H42.3598H42.4862V11.5592H42.3598ZM42.3598 11.5757H42.2335C42.2335 12.5039 42.0689 13.2982 41.7447 13.9627L41.8582 14.0181L41.9717 14.0735C42.3163 13.3673 42.4862 12.5334 42.4862 11.5757H42.3598ZM41.8582 14.0181L41.7443 13.9634C41.4252 14.6283 40.9724 15.1383 40.386 15.4976L40.4519 15.6053L40.5179 15.713C41.1486 15.3266 41.6333 14.7785 41.9721 14.0728L41.8582 14.0181ZM40.4519 15.6053L40.3867 15.4971C39.8012 15.8505 39.0983 16.0299 38.2727 16.0299V16.1562V16.2826C39.1356 16.2826 39.8856 16.0947 40.5172 15.7134L40.4519 15.6053ZM38.2727 14.8898V15.0161C38.8522 15.0161 39.3523 14.8795 39.7661 14.5997L39.6954 14.4951L39.6246 14.3904C39.26 14.6369 38.8116 14.7635 38.2727 14.7635V14.8898ZM39.6954 14.4951L39.7661 14.5997C40.1787 14.3208 40.4894 13.9214 40.7004 13.4082L40.5835 13.3602L40.4667 13.3122C40.272 13.7858 39.9906 14.143 39.6246 14.3904L39.6954 14.4951ZM40.5835 13.3602L40.6999 13.4093C40.9164 12.8965 41.0223 12.284 41.0223 11.5757H40.896H40.7697C40.7697 12.2599 40.6673 12.8371 40.4672 13.3111L40.5835 13.3602ZM40.896 11.5757H41.0223V11.5592H40.896H40.7697V11.5757H40.896ZM40.896 11.5592H41.0223C41.0223 10.8456 40.9165 10.2303 40.6999 9.71731L40.5835 9.76645L40.4672 9.81558C40.6672 10.2894 40.7697 10.8694 40.7697 11.5592H40.896ZM40.5835 9.76645L40.7004 9.71842C40.4893 9.20506 40.1783 8.80803 39.7651 8.53447L39.6954 8.6398L39.6256 8.74513C39.9909 8.98693 40.272 9.34099 40.4667 9.81448L40.5835 9.76645ZM39.6954 8.6398L39.7661 8.53516C39.3523 8.25537 38.8522 8.11875 38.2727 8.11875V8.24507V8.37138C38.8116 8.37138 39.26 8.49792 39.6246 8.74445L39.6954 8.6398ZM38.2727 8.24507V8.11875C37.6931 8.11875 37.1931 8.25537 36.7792 8.53516L36.85 8.6398L36.9207 8.74445C37.2854 8.49792 37.7338 8.37138 38.2727 8.37138V8.24507ZM36.85 8.6398L36.7802 8.53447C36.3673 8.80782 36.0538 9.20445 35.8372 9.71731L35.9536 9.76645L36.07 9.81558C36.2701 9.3416 36.5541 8.98713 36.9197 8.74513L36.85 8.6398ZM35.9536 9.76645L35.8368 9.71842C35.626 10.2311 35.523 10.8459 35.523 11.5592H35.6493H35.7756C35.7756 10.869 35.8755 10.2887 36.0704 9.81448L35.9536 9.76645ZM35.6493 11.5592H35.523V11.5757H35.6493H35.7756V11.5592H35.6493ZM35.6493 11.5757H35.523C35.523 12.2836 35.6261 12.8957 35.8368 13.4082L35.9536 13.3602L36.0704 13.3122C35.8754 12.8379 35.7756 12.2602 35.7756 11.5757H35.6493ZM35.9536 13.3602L35.8372 13.4093C36.0537 13.922 36.367 14.321 36.7792 14.5997L36.85 14.4951L36.9207 14.3904C36.5545 14.1428 36.2701 13.7852 36.07 13.3111L35.9536 13.3602ZM36.85 14.4951L36.7792 14.5997C37.1931 14.8795 37.6931 15.0161 38.2727 15.0161V14.8898V14.7635C37.7338 14.7635 37.2854 14.6369 36.9207 14.3904L36.85 14.4951ZM44.075 18.9605H43.9487V19.0868H44.075V18.9605ZM44.075 7.13487V7.00855H43.9487V7.13487H44.075ZM45.5059 7.13487H45.6322V7.00855H45.5059V7.13487ZM45.5059 8.54934H45.3796V8.67566H45.5059V8.54934ZM45.6375 8.54934V8.67566H45.7122L45.7482 8.61022L45.6375 8.54934ZM46.32 7.71053L46.4013 7.80725L46.4024 7.8063L46.32 7.71053ZM50.3579 7.55428L50.2859 7.6581L50.2871 7.6589L50.3579 7.55428ZM50.3579 15.5888L50.2871 15.4842L50.2866 15.4845L50.3579 15.5888ZM47.2493 15.9671L47.2056 16.0856L47.2077 16.0864L47.2493 15.9671ZM46.2954 15.4243L46.2141 15.5211L46.2151 15.5218L46.2954 15.4243ZM45.6375 14.602L45.7497 14.5439L45.7144 14.4757H45.6375V14.602ZM45.5059 14.602V14.4757H45.3796V14.602H45.5059ZM45.5059 18.9605V19.0868H45.6322V18.9605H45.5059ZM49.4615 14.4951L49.5329 14.5992L49.5339 14.5985L49.4615 14.4951ZM50.3414 13.352L50.2249 13.3033L50.2246 13.3039L50.3414 13.352ZM50.3414 9.7829L50.2246 9.83093L50.2251 9.83203L50.3414 9.7829ZM49.4615 8.64803L49.389 8.75151L49.3901 8.7522L49.4615 8.64803ZM45.7855 13.3438L45.6689 13.3924L45.6691 13.3929L45.7855 13.3438ZM44.075 18.9605H44.2013V7.13487H44.075H43.9487V18.9605H44.075ZM44.075 7.13487V7.26118H45.5059V7.13487V7.00855H44.075V7.13487ZM45.5059 7.13487H45.3796V8.54934H45.5059H45.6322V7.13487H45.5059ZM45.5059 8.54934V8.67566H45.6375V8.54934V8.42303H45.5059V8.54934ZM45.6375 8.54934L45.7482 8.61022C45.9219 8.29426 46.1397 8.027 46.4013 7.80725L46.32 7.71053L46.2388 7.61381C45.9522 7.85458 45.7149 8.14653 45.5268 8.48847L45.6375 8.54934ZM46.32 7.71053L46.4024 7.8063C46.6645 7.58092 46.9634 7.40768 47.3003 7.28664L47.2575 7.16776L47.2148 7.04889C46.8499 7.18004 46.5239 7.36864 46.2377 7.61476L46.32 7.71053ZM47.2575 7.16776L47.3003 7.28664C47.6361 7.16595 48.0025 7.10493 48.4006 7.10493V6.97862V6.8523C47.9764 6.8523 47.5807 6.91739 47.2148 7.04889L47.2575 7.16776ZM48.4006 6.97862V7.10493C49.1291 7.10493 49.7557 7.29063 50.2859 7.6581L50.3579 7.55428L50.4298 7.45046C49.8526 7.05038 49.1744 6.8523 48.4006 6.8523V6.97862ZM50.3579 7.55428L50.2871 7.6589C50.8247 8.02257 51.2434 8.53498 51.5419 9.20132L51.6572 9.14967L51.7725 9.09803C51.457 8.39375 51.0095 7.84256 50.4286 7.44965L50.3579 7.55428ZM51.6572 9.14967L51.5419 9.20132C51.8402 9.86713 51.9914 10.652 51.9914 11.5592H52.1177H52.2441C52.2441 10.6243 52.0882 9.80282 51.7725 9.09803L51.6572 9.14967ZM52.1177 11.5592H51.9914V11.5757H52.1177H52.2441V11.5592H52.1177ZM52.1177 11.5757H51.9914C51.9914 12.4884 51.8402 13.276 51.5419 13.9418L51.6572 13.9934L51.7725 14.0451C52.0883 13.3402 52.2441 12.5159 52.2441 11.5757H52.1177ZM51.6572 13.9934L51.5419 13.9418C51.2434 14.6081 50.8247 15.1205 50.2871 15.4842L50.3579 15.5888L50.4286 15.6934C51.0095 15.3005 51.457 14.7493 51.7725 14.0451L51.6572 13.9934ZM50.3579 15.5888L50.2866 15.4845C49.7564 15.8468 49.1295 16.0299 48.4006 16.0299V16.1562V16.2826C49.174 16.2826 49.8519 16.0874 50.4291 15.6931L50.3579 15.5888ZM48.4006 16.1562V16.0299C48.0082 16.0299 47.6386 15.969 47.2909 15.8478L47.2493 15.9671L47.2077 16.0864C47.5837 16.2174 47.9816 16.2826 48.4006 16.2826V16.1562ZM47.2493 15.9671L47.2931 15.8486C46.9493 15.7217 46.6438 15.5477 46.3757 15.3268L46.2954 15.4243L46.2151 15.5218C46.5061 15.7615 46.8366 15.9494 47.2056 16.0856L47.2493 15.9671ZM46.2954 15.4243L46.3766 15.3276C46.1153 15.1081 45.9065 14.8471 45.7497 14.5439L45.6375 14.602L45.5253 14.66C45.6974 14.9928 45.9272 15.2801 46.2141 15.5211L46.2954 15.4243ZM45.6375 14.602V14.4757H45.5059V14.602V14.7283H45.6375V14.602ZM45.5059 14.602H45.3796V18.9605H45.5059H45.6322V14.602H45.5059ZM45.5059 18.9605V18.8342H44.075V18.9605V19.0868H45.5059V18.9605ZM48.0717 14.8898V15.0161C48.6356 15.0161 49.1248 14.8791 49.5329 14.5992L49.4615 14.4951L49.3901 14.3909C49.0306 14.6373 48.5933 14.7635 48.0717 14.7635V14.8898ZM49.4615 14.4951L49.5339 14.5985C49.9401 14.3142 50.2475 13.9126 50.4582 13.4L50.3414 13.352L50.2246 13.3039C50.0296 13.7782 49.7504 14.1387 49.389 14.3916L49.4615 14.4951ZM50.3414 13.352L50.458 13.4006C50.6742 12.8828 50.7802 12.2734 50.7802 11.5757H50.6539H50.5276C50.5276 12.2486 50.4253 12.8233 50.2249 13.3033L50.3414 13.352ZM50.6539 11.5757H50.7802V11.5592H50.6539H50.5276V11.5757H50.6539ZM50.6539 11.5592H50.7802C50.7802 10.8562 50.6743 10.2465 50.4578 9.73376L50.3414 9.7829L50.2251 9.83203C50.4252 10.3061 50.5276 10.8806 50.5276 11.5592H50.6539ZM50.3414 9.7829L50.4582 9.73487C50.2475 9.22213 49.9398 8.82286 49.5329 8.54385L49.4615 8.64803L49.3901 8.7522C49.7507 8.99951 50.0297 9.35682 50.2246 9.83092L50.3414 9.7829ZM49.4615 8.64803L49.5339 8.54454C49.1257 8.25878 48.6361 8.11875 48.0717 8.11875V8.24507V8.37138C48.5928 8.37138 49.0297 8.49999 49.389 8.75151L49.4615 8.64803ZM48.0717 8.24507V8.11875C47.5124 8.11875 47.0233 8.25894 46.6101 8.54407L46.6819 8.64803L46.7536 8.75199C47.119 8.49983 47.5564 8.37138 48.0717 8.37138V8.24507ZM46.6819 8.64803L46.6101 8.54407C46.1986 8.82811 45.8855 9.22943 45.6691 9.74199L45.7855 9.79112L45.9019 9.84025C46.1021 9.36597 46.3867 9.00522 46.7536 8.75199L46.6819 8.64803ZM45.7855 9.79112L45.6691 9.74199C45.4527 10.2546 45.3467 10.8616 45.3467 11.5592H45.473H45.5993C45.5993 10.8863 45.7017 10.3144 45.9019 9.84025L45.7855 9.79112ZM45.473 11.5592H45.3467V11.5757H45.473H45.5993V11.5592H45.473ZM45.473 11.5757H45.3467C45.3467 12.268 45.4527 12.8747 45.6689 13.3924L45.7855 13.3438L45.9021 13.2951C45.7016 12.815 45.5993 12.2429 45.5993 11.5757H45.473ZM45.7855 13.3438L45.6691 13.3929C45.8855 13.9054 46.1986 14.3068 46.6101 14.5908L46.6819 14.4868L46.7536 14.3829C46.3867 14.1296 46.1021 13.7689 45.9019 13.2946L45.7855 13.3438ZM46.6819 14.4868L46.6101 14.5908C47.0233 14.8759 47.5124 15.0161 48.0717 15.0161V14.8898V14.7635C47.5564 14.7635 47.119 14.635 46.7536 14.3829L46.6819 14.4868ZM53.8493 16H53.723V16.1263H53.8493V16ZM53.8493 7.13487V7.00855H53.723V7.13487H53.8493ZM55.2802 7.13487H55.4066V7.00855H55.2802V7.13487ZM55.2802 8.48355H55.1539V8.60987H55.2802V8.48355ZM55.4118 8.48355V8.60987H55.4962L55.5285 8.53185L55.4118 8.48355ZM56.3164 7.37336L56.2483 7.26696L56.2477 7.26738L56.3164 7.37336ZM59.7046 7.72697L59.6142 7.81524L59.6153 7.81629L59.7046 7.72697ZM60.2556 8.5329L60.1402 8.58439L60.1736 8.65921H60.2556V8.5329ZM60.3871 8.5329V8.65921H60.4646L60.4997 8.59017L60.3871 8.5329ZM61.0286 7.71875L61.1108 7.81466L61.1119 7.81369L61.0286 7.71875ZM61.9579 7.17599L62.0006 7.29486L62.0016 7.29448L61.9579 7.17599ZM64.6306 7.31579L64.5706 7.42696L64.5712 7.42729L64.6306 7.31579ZM65.5927 8.30263L65.48 8.35969L65.4803 8.36027L65.5927 8.30263ZM65.9217 16V16.1263H66.048V16H65.9217ZM64.4908 16H64.3644V16.1263H64.4908V16ZM64.2852 9.11678L64.1701 9.1689L64.1713 9.17151L64.2852 9.11678ZM63.6766 8.46711L63.6166 8.57827L63.6183 8.57918L63.6766 8.46711ZM60.8477 9.27303L60.9582 9.33421L60.9586 9.33338L60.8477 9.27303ZM60.5927 16V16.1263H60.7191V16H60.5927ZM59.1618 16H59.0355V16.1263H59.1618V16ZM58.9316 9.06743L58.8214 9.12938L58.823 9.13208L58.9316 9.06743ZM58.2901 8.45888L58.2318 8.57096L58.2327 8.57142L58.2901 8.45888ZM56.2753 8.54934L56.2065 8.44339L56.2057 8.44395L56.2753 8.54934ZM55.5434 9.37171L55.4315 9.3131L55.4311 9.31378L55.5434 9.37171ZM55.2802 16V16.1263H55.4066V16H55.2802ZM53.8493 16H53.9756V7.13487H53.8493H53.723V16H53.8493ZM53.8493 7.13487V7.26118H55.2802V7.13487V7.00855H53.8493V7.13487ZM55.2802 7.13487H55.1539V8.48355H55.2802H55.4066V7.13487H55.2802ZM55.2802 8.48355V8.60987H55.4118V8.48355V8.35724H55.2802V8.48355ZM55.4118 8.48355L55.5285 8.53185C55.7168 8.07684 56.0024 7.72761 56.3852 7.47933L56.3164 7.37336L56.2477 7.26738C55.819 7.54542 55.5016 7.93632 55.2951 8.43526L55.4118 8.48355ZM56.3164 7.37336L56.3845 7.47975C56.7718 7.2319 57.2432 7.10493 57.8049 7.10493V6.97862V6.8523C57.2043 6.8523 56.6834 6.9885 56.2483 7.26696L56.3164 7.37336ZM57.8049 6.97862V7.10493C58.1912 7.10493 58.5335 7.16841 58.8339 7.29271L58.8822 7.17599L58.9305 7.05927C58.5949 6.92041 58.219 6.8523 57.8049 6.8523V6.97862ZM58.8822 7.17599L58.8339 7.29271C59.1368 7.41804 59.3964 7.59227 59.6142 7.81524L59.7046 7.72697L59.7949 7.63871C59.5522 7.39019 59.2636 7.19709 58.9305 7.05927L58.8822 7.17599ZM59.7046 7.72697L59.6153 7.81629C59.8343 8.03529 60.0092 8.291 60.1402 8.58439L60.2556 8.5329L60.3709 8.4814C60.2278 8.16076 60.0354 7.87919 59.7939 7.63766L59.7046 7.72697ZM60.2556 8.5329V8.65921H60.3871V8.5329V8.40658H60.2556V8.5329ZM60.3871 8.5329L60.4997 8.59017C60.6511 8.29255 60.8546 8.03426 61.1108 7.81466L61.0286 7.71875L60.9464 7.62284C60.6653 7.86377 60.4411 8.14824 60.2746 8.47562L60.3871 8.5329ZM61.0286 7.71875L61.1119 7.81369C61.3681 7.58885 61.664 7.41583 62.0006 7.29486L61.9579 7.17599L61.9151 7.05711C61.55 7.18834 61.2263 7.37716 60.9453 7.62381L61.0286 7.71875ZM61.9579 7.17599L62.0016 7.29448C62.343 7.16842 62.7092 7.10493 63.101 7.10493V6.97862V6.8523C62.6813 6.8523 62.2854 6.9204 61.9141 7.05749L61.9579 7.17599ZM63.101 6.97862V7.10493C63.6887 7.10493 64.1767 7.21448 64.5706 7.42696L64.6306 7.31579L64.6905 7.20462C64.2511 6.96754 63.7194 6.8523 63.101 6.8523V6.97862ZM64.6306 7.31579L64.5712 7.42729C64.97 7.63965 65.2723 7.94941 65.48 8.35969L65.5927 8.30263L65.7054 8.24557C65.4746 7.78963 65.1354 7.44149 64.6899 7.20429L64.6306 7.31579ZM65.5927 8.30263L65.4803 8.36027C65.6882 8.76566 65.7954 9.26827 65.7954 9.87336H65.9217H66.048C66.048 9.23941 65.9358 8.69486 65.7051 8.24499L65.5927 8.30263ZM65.9217 9.87336H65.7954V16H65.9217H66.048V9.87336H65.9217ZM65.9217 16V15.8737H64.4908V16V16.1263H65.9217V16ZM64.4908 16H64.6171V10.2023H64.4908H64.3644V16H64.4908ZM64.4908 10.2023H64.6171C64.6171 9.75165 64.5468 9.36949 64.399 9.06204L64.2852 9.11678L64.1713 9.17151C64.2976 9.43424 64.3644 9.77577 64.3644 10.2023H64.4908ZM64.2852 9.11678L64.4002 9.06467C64.2574 8.74922 64.035 8.51109 63.7349 8.35504L63.6766 8.46711L63.6183 8.57918C63.8665 8.70821 64.0498 8.9032 64.1701 9.16888L64.2852 9.11678ZM63.6766 8.46711L63.7366 8.35596C63.4389 8.19518 63.0713 8.11875 62.6404 8.11875V8.24507V8.37138C63.0429 8.37138 63.3661 8.44297 63.6166 8.57825L63.6766 8.46711ZM62.6404 8.24507V8.11875C62.2095 8.11875 61.8271 8.21664 61.4976 8.4167L61.5631 8.52467L61.6287 8.63264C61.9132 8.4599 62.249 8.37138 62.6404 8.37138V8.24507ZM61.5631 8.52467L61.4976 8.4167C61.1717 8.61457 60.9174 8.88037 60.7367 9.21268L60.8477 9.27303L60.9586 9.33338C61.1178 9.04068 61.3406 8.80758 61.6287 8.63264L61.5631 8.52467ZM60.8477 9.27303L60.7372 9.21185C60.556 9.53904 60.4664 9.90301 60.4664 10.301H60.5927H60.7191C60.7191 9.94238 60.7994 9.62105 60.9582 9.3342L60.8477 9.27303ZM60.5927 10.301H60.4664V16H60.5927H60.7191V10.301H60.5927ZM60.5927 16V15.8737H59.1618V16V16.1263H60.5927V16ZM59.1618 16H59.2881V9.98026H59.1618H59.0355V16H59.1618ZM59.1618 9.98026H59.2881C59.2881 9.61054 59.2071 9.28312 59.0401 9.00279L58.9316 9.06743L58.823 9.13208C58.963 9.3671 59.0355 9.64824 59.0355 9.98026H59.1618ZM58.9316 9.06743L59.0416 9.00551C58.8809 8.71977 58.6483 8.49972 58.3475 8.34635L58.2901 8.45888L58.2327 8.57142C58.4911 8.70313 58.6861 8.88879 58.8215 9.12936L58.9316 9.06743ZM58.2901 8.45888L58.3484 8.34681C58.0529 8.19316 57.7087 8.11875 57.3197 8.11875V8.24507V8.37138C57.6764 8.37138 57.9791 8.43951 58.2318 8.57095L58.2901 8.45888ZM57.3197 8.24507V8.11875C56.9123 8.11875 56.5401 8.22683 56.2065 8.44339L56.2753 8.54934L56.3441 8.65529C56.6355 8.46615 56.9596 8.37138 57.3197 8.37138V8.24507ZM56.2753 8.54934L56.2057 8.44395C55.8798 8.65928 55.6217 8.94996 55.4315 9.3131L55.5434 9.37171L55.6553 9.43032C55.8269 9.10268 56.0568 8.84511 56.3449 8.65473L56.2753 8.54934ZM55.5434 9.37171L55.4311 9.31378C55.2457 9.67317 55.1539 10.0716 55.1539 10.5066H55.2802H55.4066C55.4066 10.1082 55.4903 9.75008 55.6556 9.42964L55.5434 9.37171ZM55.2802 10.5066H55.1539V16H55.2802H55.4066V10.5066H55.2802ZM55.2802 16V15.8737H53.8493V16V16.1263H55.2802V16ZM68.9197 15.8355L68.8649 15.9493L68.8655 15.9496L68.9197 15.8355ZM67.8589 14.9227L67.7531 14.9917L67.7538 14.9928L67.8589 14.9227ZM67.8506 12.1595L67.9553 12.2303L67.9557 12.2296L67.8506 12.1595ZM70.7042 10.8931L70.7113 11.0192L70.7119 11.0192L70.7042 10.8931ZM73.9608 10.6957H74.0871V10.5615L73.9532 10.5696L73.9608 10.6957ZM73.9608 11.8388L73.9689 11.9649L74.0871 11.9573V11.8388H73.9608ZM70.8769 12.0362L70.8841 12.1623L70.885 12.1622L70.8769 12.0362ZM69.3967 12.4556L69.3195 12.3556L69.3186 12.3563L69.3967 12.4556ZM69.446 14.5444L69.3708 14.6459L69.3718 14.6466L69.446 14.5444ZM72.0283 14.6266L72.0854 14.7393L72.0867 14.7386L72.0283 14.6266ZM72.9164 13.8289L72.8108 13.7597L72.81 13.7609L72.9164 13.8289ZM72.7437 8.68092L72.6601 8.77561L72.6618 8.77705L72.7437 8.68092ZM69.9477 8.5329L70.0084 8.64366L70.0098 8.64289L69.9477 8.5329ZM69.2569 9.35526V9.48158H69.3479L69.3767 9.39521L69.2569 9.35526ZM67.826 9.35526L67.7014 9.3345L67.6768 9.48158H67.826V9.35526ZM67.8342 9.30592L67.9588 9.32669L67.9588 9.32645L67.8342 9.30592ZM68.4098 8.08882L68.3155 8.00481L68.3154 8.0049L68.4098 8.08882ZM69.6187 7.27467L69.6645 7.3924L69.6656 7.39195L69.6187 7.27467ZM73.1385 7.33224L73.0845 7.44645L73.085 7.44667L73.1385 7.33224ZM74.2816 8.35197L74.1723 8.41538L74.1732 8.41696L74.2816 8.35197ZM74.6763 16V16.1263H74.8026V16H74.6763ZM73.2454 16H73.1191V16.1263H73.2454V16ZM73.2454 14.6924H73.3717V14.5661H73.2454V14.6924ZM73.1138 14.6924V14.5661H73.0421L73.0053 14.6277L73.1138 14.6924ZM72.4312 15.4901L72.3513 15.3923L72.3504 15.3931L72.4312 15.4901ZM71.5348 15.9918L71.5742 16.1118L71.576 16.1112L71.5348 15.9918ZM70.4329 16.1562V16.0299C69.8901 16.0299 69.4046 15.9263 68.974 15.7215L68.9197 15.8355L68.8655 15.9496C69.334 16.1724 69.8572 16.2826 70.4329 16.2826V16.1562ZM68.9197 15.8355L68.9745 15.7217C68.55 15.5173 68.2141 15.2278 67.964 14.8526L67.8589 14.9227L67.7538 14.9928C68.03 15.4071 68.4013 15.7261 68.8649 15.9493L68.9197 15.8355ZM67.8589 14.9227L67.9646 14.8537C67.7222 14.4822 67.5987 14.041 67.5987 13.5247H67.4723H67.346C67.346 14.0829 67.4802 14.5737 67.7531 14.9917L67.8589 14.9227ZM67.4723 13.5247H67.5987V13.5082H67.4723H67.346V13.5247H67.4723ZM67.4723 13.5082H67.5987C67.5987 13.0028 67.7195 12.5789 67.9553 12.2303L67.8506 12.1595L67.746 12.0888C67.4774 12.4858 67.346 12.9611 67.346 13.5082H67.4723ZM67.8506 12.1595L67.9557 12.2296C68.1926 11.8743 68.5397 11.5926 69.0038 11.3869L68.9526 11.2714L68.9014 11.1559C68.4006 11.3778 68.013 11.6882 67.7455 12.0895L67.8506 12.1595ZM68.9526 11.2714L69.0038 11.3869C69.4688 11.1808 70.0369 11.057 70.7113 11.0192L70.7042 10.8931L70.6972 10.767C70.001 10.806 69.4013 10.9344 68.9014 11.1559L68.9526 11.2714ZM70.7042 10.8931L70.7119 11.0192L73.9685 10.8218L73.9608 10.6957L73.9532 10.5696L70.6966 10.767L70.7042 10.8931ZM73.9608 10.6957H73.8345V11.8388H73.9608H74.0871V10.6957H73.9608ZM73.9608 11.8388L73.9528 11.7128L70.8689 11.9101L70.8769 12.0362L70.885 12.1622L73.9689 11.9649L73.9608 11.8388ZM70.8769 12.0362L70.8698 11.9101C70.1861 11.949 69.662 12.0912 69.3195 12.3556L69.3967 12.4556L69.4739 12.5556C69.7564 12.3375 70.2191 12.2001 70.8841 12.1623L70.8769 12.0362ZM69.3967 12.4556L69.3186 12.3563C68.9771 12.6246 68.8098 13.0034 68.8098 13.4753H68.9362H69.0625C69.0625 13.0701 69.2022 12.769 69.4747 12.5549L69.3967 12.4556ZM68.9362 13.4753H68.8098V13.4918H68.9362H69.0625V13.4753H68.9362ZM68.9362 13.4918H68.8098C68.8098 13.9784 68.9965 14.3682 69.3708 14.6459L69.446 14.5444L69.5213 14.443C69.2158 14.2163 69.0625 13.9043 69.0625 13.4918H68.9362ZM69.446 14.5444L69.3718 14.6466C69.7378 14.9123 70.1931 15.0408 70.7289 15.0408V14.9145V14.7882C70.2341 14.7882 69.8341 14.67 69.5202 14.4422L69.446 14.5444ZM70.7289 14.9145V15.0408C71.2337 15.0408 71.6869 14.9414 72.0854 14.7393L72.0283 14.6266L71.9711 14.514C71.613 14.6956 71.2 14.7882 70.7289 14.7882V14.9145ZM72.0283 14.6266L72.0867 14.7386C72.483 14.5319 72.7963 14.2514 73.0228 13.897L72.9164 13.8289L72.81 13.7609C72.609 14.0754 72.3301 14.3267 71.9698 14.5147L72.0283 14.6266ZM72.9164 13.8289L73.0221 13.8982C73.2556 13.542 73.3717 13.1394 73.3717 12.6941H73.2454H73.1191C73.1191 13.0931 73.0158 13.447 72.8108 13.7597L72.9164 13.8289ZM73.2454 12.6941H73.3717V9.93092H73.2454H73.1191V12.6941H73.2454ZM73.2454 9.93092H73.3717C73.3717 9.35562 73.195 8.89965 72.8257 8.58479L72.7437 8.68092L72.6618 8.77705C72.9613 9.03236 73.1191 9.40973 73.1191 9.93092H73.2454ZM72.7437 8.68092L72.8273 8.58625C72.466 8.26706 71.9342 8.11875 71.2552 8.11875V8.24507V8.37138C71.9031 8.37138 72.3635 8.51364 72.6601 8.77559L72.7437 8.68092ZM71.2552 8.24507V8.11875C70.7092 8.11875 70.2501 8.21713 69.8856 8.4229L69.9477 8.5329L70.0098 8.64289C70.3251 8.46489 70.7376 8.37138 71.2552 8.37138V8.24507ZM69.9477 8.5329L69.8869 8.42214C69.5211 8.62277 69.2712 8.91297 69.1453 9.29065L69.2651 9.33059L69.3849 9.37054C69.4893 9.05743 69.6944 8.81583 70.0084 8.64365L69.9477 8.5329ZM69.2651 9.33059L69.1453 9.29065L69.137 9.31532L69.2569 9.35526L69.3767 9.39521L69.3849 9.37054L69.2651 9.33059ZM69.2569 9.35526V9.22895H67.826V9.35526V9.48158H69.2569V9.35526ZM67.826 9.35526L67.9506 9.37603L67.9588 9.32669L67.8342 9.30592L67.7096 9.28516L67.7014 9.3345L67.826 9.35526ZM67.8342 9.30592L67.9588 9.32645C68.0318 8.88346 68.2135 8.49987 68.5043 8.17274L68.4098 8.08882L68.3154 8.0049C67.9922 8.36855 67.7901 8.79637 67.7095 9.28539L67.8342 9.30592ZM68.4098 8.08882L68.5042 8.17283C68.8018 7.83867 69.1873 7.57797 69.6645 7.3924L69.6187 7.27467L69.5729 7.15694C69.0633 7.35514 68.6429 7.63721 68.3155 8.00481L68.4098 8.08882ZM69.6187 7.27467L69.6656 7.39195C70.1416 7.20155 70.6872 7.10493 71.3046 7.10493V6.97862V6.8523C70.661 6.8523 70.0827 6.95305 69.5718 7.15739L69.6187 7.27467ZM71.3046 6.97862V7.10493C72.0152 7.10493 72.6069 7.22075 73.0845 7.44644L73.1385 7.33224L73.1924 7.21803C72.6722 6.97223 72.0414 6.8523 71.3046 6.8523V6.97862ZM73.1385 7.33224L73.085 7.44667C73.5681 7.67246 73.9287 7.9955 74.1723 8.41537L74.2816 8.35197L74.3908 8.28858C74.1191 7.82029 73.7176 7.4635 73.1919 7.2178L73.1385 7.33224ZM74.2816 8.35197L74.1732 8.41696C74.4225 8.83232 74.55 9.33517 74.55 9.93092H74.6763H74.8026C74.8026 9.2986 74.667 8.74882 74.3899 8.28699L74.2816 8.35197ZM74.6763 9.93092H74.55V16H74.6763H74.8026V9.93092H74.6763ZM74.6763 16V15.8737H73.2454V16V16.1263H74.6763V16ZM73.2454 16H73.3717V14.6924H73.2454H73.1191V16H73.2454ZM73.2454 14.6924V14.5661H73.1138V14.6924V14.8188H73.2454V14.6924ZM73.1138 14.6924L73.0053 14.6277C72.8261 14.9282 72.608 15.1827 72.3513 15.3923L72.4312 15.4901L72.5111 15.588C72.7917 15.3589 73.0287 15.0816 73.2223 14.7571L73.1138 14.6924ZM72.4312 15.4901L72.3504 15.3931C72.0994 15.6023 71.8141 15.762 71.4937 15.8723L71.5348 15.9918L71.576 16.1112C71.9244 15.9913 72.2368 15.8166 72.5121 15.5872L72.4312 15.4901ZM71.5348 15.9918L71.4955 15.8717C71.1754 15.9767 70.8215 16.0299 70.4329 16.0299V16.1562V16.2826C70.8446 16.2826 71.2255 16.2261 71.5742 16.1118L71.5348 15.9918ZM76.7862 16H76.6598V16.1263H76.7862V16ZM76.7862 7.13487V7.00855H76.6598V7.13487H76.7862ZM78.2171 7.13487H78.3434V7.00855H78.2171V7.13487ZM78.2171 8.45066H78.0908V8.57697H78.2171V8.45066ZM78.3487 8.45066V8.57697H78.437L78.4673 8.49394L78.3487 8.45066ZM81.12 7.00329L81.1044 7.12875L81.11 7.1292L81.12 7.00329ZM81.4325 7.03618H81.5589V6.92782L81.4517 6.91134L81.4325 7.03618ZM81.4325 8.42599L81.4095 8.55019L81.5589 8.57784V8.42599H81.4325ZM80.9967 8.36842L80.9816 8.49395L80.987 8.49437L80.9967 8.36842ZM78.5131 9.37171L78.4061 9.3046L78.4053 9.30592L78.5131 9.37171ZM78.2171 16V16.1263H78.3434V16H78.2171ZM76.7862 16H76.9125V7.13487H76.7862H76.6598V16H76.7862ZM76.7862 7.13487V7.26118H78.2171V7.13487V7.00855H76.7862V7.13487ZM78.2171 7.13487H78.0908V8.45066H78.2171H78.3434V7.13487H78.2171ZM78.2171 8.45066V8.57697H78.3487V8.45066V8.32434H78.2171V8.45066ZM78.3487 8.45066L78.4673 8.49394C78.6281 8.05318 78.8985 7.714 79.2799 7.47176L79.2121 7.36513L79.1444 7.25851C78.7144 7.53161 78.4091 7.91612 78.23 8.40738L78.3487 8.45066ZM79.2121 7.36513L79.2799 7.47176C79.6609 7.22975 80.1376 7.10493 80.7171 7.10493V6.97862V6.8523C80.1013 6.8523 79.5748 6.98517 79.1444 7.25851L79.2121 7.36513ZM80.7171 6.97862V7.10493C80.8491 7.10493 80.9782 7.11285 81.1044 7.12863L81.12 7.00329L81.1357 6.87795C80.9988 6.86083 80.8592 6.8523 80.7171 6.8523V6.97862ZM81.12 7.00329L81.11 7.1292C81.2462 7.1401 81.3467 7.15078 81.4133 7.16103L81.4325 7.03618L81.4517 6.91134C81.3758 6.89966 81.268 6.88841 81.1301 6.87738L81.12 7.00329ZM81.4325 7.03618H81.3062V8.42599H81.4325H81.5589V7.03618H81.4325ZM81.4325 8.42599L81.4555 8.30178C81.3033 8.2736 81.1536 8.2538 81.0064 8.24248L80.9967 8.36842L80.987 8.49437C81.1248 8.50497 81.2657 8.52355 81.4095 8.55019L81.4325 8.42599ZM80.9967 8.36842L81.0117 8.24301C80.869 8.22588 80.7159 8.21743 80.5526 8.21743V8.34375V8.47007C80.7073 8.47007 80.8502 8.47807 80.9816 8.49384L80.9967 8.36842ZM80.5526 8.34375V8.21743C80.0805 8.21743 79.6572 8.31139 79.2858 8.50286L79.3437 8.61513L79.4016 8.7274C79.732 8.55703 80.1146 8.47007 80.5526 8.47007V8.34375ZM79.3437 8.61513L79.2858 8.50286C78.9155 8.69379 78.6214 8.96128 78.4061 9.3046L78.5131 9.37171L78.6201 9.43882C78.8105 9.13521 79.0701 8.89831 79.4016 8.7274L79.3437 8.61513ZM78.5131 9.37171L78.4053 9.30592C78.1942 9.6519 78.0908 10.0536 78.0908 10.5066H78.2171H78.3434C78.3434 10.0933 78.4373 9.73845 78.621 9.4375L78.5131 9.37171ZM78.2171 10.5066H78.0908V16H78.2171H78.3434V10.5066H78.2171ZM78.2171 16V15.8737H76.7862V16V16.1263H78.2171V16Z" fill="#242225" mask="url(#path-2-outside-1_170_119)"/>
</svg>
